<svg width="187" height="49" viewBox="0 0 187 49" fill="none" xmlns="http://www.w3.org/2000/svg">
<g filter="url(#filter0_d)">
<path d="M115.4 35.4C116.2 34.8 117.1 34.5 118.1 34.5C118.9 34.5 119.5 34.7 119.9 35.1C120.3 35.5 120.5 36 120.5 36.6C120.5 37.1 120.3 37.7 120 38.3C119.7 38.9 119.2 39.4 118.5 39.9C118.1 40.2 117.7 40.4 117.2 40.5C116.7 40.7 116.3 40.7 115.8 40.7C115 40.7 114.4 40.5 114 40.1C113.6 39.7 113.4 39.2 113.4 38.6C113.4 38.2 113.5 37.8 113.6 37.6C114 36.7 114.6 36 115.4 35.4Z" fill="white"/>
<path d="M126.7 27.1L130.2 17.3H138.5C137.5 20.3 136.7 22.6 136.1 24.3C135.5 26 135.1 27.2 134.9 28C134.7 28.8 134.5 29.3 134.4 29.6C134.3 29.8 134.3 30 134.3 30.1C134.2 30.7001 134.1 31.2 134.1 31.5C134.1 32.5 134.3 33.3001 134.8 33.9001C135.3 34.5001 136 34.8 136.8 34.8H139C139.7 34.8 140.4 34.7001 141 34.4001C141.6 34.1001 142.1 33.7 142.6 33.3C143.1 32.9 143.5 32.4 143.8 31.9C144.1 31.4 144.4 30.9 144.6 30.5L149.4 17.4H157.8L153.8 28.3C153.1 30.3 152.3 32.1 151.6 33.6C150.9 35.1 150 36.4 149 37.5C148 38.6 146.9 39.4001 145.7 39.9001C144.4 40.4001 142.9 40.7001 141.2 40.7001H136.1C134 40.7001 132.3 40.6 131 40.3C129.6 40.1 128.5 39.7001 127.7 39.2001C126.9 38.7001 126.3 38 125.9 37.2001C125.5 36.4001 125.4 35.4001 125.4 34.2001C125.4 33.9001 125.4 33.5 125.5 33.2001C125.5 32.8001 125.6 32.5 125.7 32.1C125.8 31.3 126 30.6 126.2 29.8C126.2 29 126.4 28.1 126.7 27.1Z" fill="white"/>
<path d="M175.1 40.7L174.2 35.7C174.1 35.9 173.9 36.2 173.6 36.7C173.2 37.2 172.8 37.7 172.4 38.3C171.9 38.9 171.5 39.4 171.1 39.8C170.7 40.3 170.3 40.5 170.1 40.6H151.5C151.6 40.4 151.6 40.3 151.6 40.3V40.2L167.3 20C167.4 19.8 167.6 19.6 167.8 19.3C168 19 168.3 18.7 168.7 18.4C169 18.1 169.3 17.9 169.6 17.7C169.9 17.5 170.2 17.4 170.4 17.4H177.8C178.1 17.4 178.4 17.6 178.6 17.9C178.8 18.2 179.1 18.6 179.2 19.1C179.4 19.6 179.5 20.1 179.7 20.6C179.8 21.1 179.9 21.5 180 21.9L182.9 40.8H175.1V40.7ZM165.2 34.8H174.1L172.6 24.5L165.2 34.4V34.8Z" fill="white"/>
<path d="M30.8 33.3V33C30.8 32.8 30.8 32.5 30.7 32.3C30.6 32.1 30.5 31.9 30.2 31.9H21.4C20.5 31.9 19.7 31.7 19 31.3C18.3 30.9 17.7 30.3 17.2 29.7C16.7 29 16.3 28.3 16 27.5C15.7 26.7 15.6 25.9 15.6 25.2C15.6 24.5 15.8 23.7 16.2 22.8C16.6 21.9 17.1 21.1 17.8 20.2C18.4 19.4 19.2 18.7 20 18.2C20.8 17.7 21.6 17.4 22.5 17.4H45C44.3 18.4 43.6 19.4 42.7 20.4C41.8 21.4 40.9 22.4 39.8 23.4H25.2C24.9 23.4 24.6 23.6 24.4 24.1C24.2 24.5 24 24.9 24 25.2V25.4C24 25.4 24.1 25.5 24.2 25.6C24.3 25.7 24.4 25.8 24.5 25.8C24.6 25.9 24.8 26 25 26.1C25.2 26.2 25.3 26.3 25.4 26.3H33.8C34.7 26.3 35.5 26.5 36.2 27C36.9 27.5 37.4 28 37.8 28.7C38.2 29.4 38.5 30.1 38.7 30.9C38.9 31.7 39 32.4 39 33.1V33.4C39 34.2 38.8 35 38.5 35.8C38.1 36.7 37.7 37.5 37.1 38.2C36.5 38.9 35.9 39.5 35.1 40C34.4 40.5 33.6 40.7 32.8 40.7H10.4C10.5 40.4 10.8 39.9 11.3 39.3C11.8 38.7 12.2 38 12.8 37.3C13.4 36.6 13.8 36.1 14.2 35.5C14.6 35 14.9 34.7 15 34.7H30C30.4 34.7 30.7 34.6 30.8 34.3C30.9 34 30.9 33.8 30.9 33.5V33.3H30.8Z" fill="url(#paint0_linear)"/>
<path d="M64.8 40.7001L69.6 27.6L57.6 40.7001H54.6L52.2 27.6L47.4 40.7001H39L47.5 17.4H58.1L60.4 29L71.2 17.3H81.8L73.3 40.6H64.8V40.7001Z" fill="url(#paint1_linear)"/>
<path d="M101.6 40.7001L106.4 27.6L94.4 40.7001H91.4L89 27.5L84.2 40.6H75.8L84.3 17.3H94.9L97.1 29L107.9 17.3H118.5L110 40.6H101.6V40.7001Z" fill="url(#paint2_linear)"/>
</g>
<defs>
<filter id="filter0_d" x="-4" y="0" width="191.7" height="55.9" filterUnits="userSpaceOnUse" color-interpolation-filters="sRGB">
<feFlood flood-opacity="0" result="BackgroundImageFix"/>
<feColorMatrix in="SourceAlpha" type="matrix" values="0 0 0 0 0 0 0 0 0 0 0 0 0 0 0 0 0 0 127 0"/>
<feOffset dy="4"/>
<feGaussianBlur stdDeviation="2"/>
<feColorMatrix type="matrix" values="0 0 0 0 0 0 0 0 0 0 0 0 0 0 0 0 0 0 0.25 0"/>
<feBlend mode="normal" in2="BackgroundImageFix" result="effect1_dropShadow"/>
<feBlend mode="normal" in="SourceGraphic" in2="effect1_dropShadow" result="shape"/>
</filter>
<linearGradient id="paint0_linear" x1="27.7" y1="17.4" x2="27.7" y2="40.7" gradientUnits="userSpaceOnUse">
<stop stop-color="#03F003"/>
<stop offset="0.0001" stop-color="#03F003"/>
<stop offset="0.211157" stop-color="#05F805"/>
<stop offset="1" stop-color="#019F01"/>
</linearGradient>
<linearGradient id="paint1_linear" x1="60.4" y1="17.3" x2="60.4" y2="40.7001" gradientUnits="userSpaceOnUse">
<stop stop-color="#03F003"/>
<stop offset="0.0001" stop-color="#03F003"/>
<stop offset="0.211157" stop-color="#05F805"/>
<stop offset="1" stop-color="#019F01"/>
</linearGradient>
<linearGradient id="paint2_linear" x1="97.15" y1="17.3" x2="97.15" y2="40.7001" gradientUnits="userSpaceOnUse">
<stop stop-color="#03F003"/>
<stop offset="0.0001" stop-color="#03F003"/>
<stop offset="0.211157" stop-color="#05F805"/>
<stop offset="1" stop-color="#019F01"/>
</linearGradient>
</defs>
</svg>
