<svg width="461" height="400" viewBox="0 0 461 400" fill="none" xmlns="http://www.w3.org/2000/svg">
<path fill-rule="evenodd" clip-rule="evenodd" d="M421.526 278.469C402.44 278.469 386.824 294.108 386.824 313.223C386.824 348.086 358.303 376.758 323.383 376.758H304.405H157.245H83.2858C37.9558 376.758 0.867561 339.614 0.867561 294.325C0.867561 248.928 37.9558 211.784 83.2858 211.784C92.3952 211.784 99.7695 204.29 99.7695 195.276C99.7695 186.153 92.2868 178.767 83.2858 178.767H40.1247C18.0019 178.767 0 160.63 0 138.583C0 116.427 18.0019 98.398 40.1247 98.398H79.2733C98.3597 98.398 113.976 82.7586 113.976 63.6438C113.976 28.7809 142.497 0.108607 177.416 0.108607C239.23 0 316.66 0 378.473 0C423.803 0 460.783 37.1436 460.783 82.4328C460.783 127.831 423.695 164.866 378.473 164.866C369.364 164.866 361.99 172.359 361.99 181.374C361.99 190.497 369.472 197.882 378.473 197.882H421.526C474.122 197.991 474.122 278.469 421.526 278.469Z" fill="#C6E3F1"/>
<path fill-rule="evenodd" clip-rule="evenodd" d="M172.319 66.2503C173.187 65.4901 172.536 64.0782 171.343 64.2954C171.126 64.2954 170.909 64.404 170.693 64.6212C170.15 65.1643 169.5 65.7073 168.957 66.2503C168.632 66.5761 168.524 67.1192 168.741 67.5536C169.066 68.2053 170.042 68.4225 170.584 67.8794C171.235 67.3364 171.777 66.7934 172.319 66.2503ZM276.86 330.926C275.776 330.926 275.342 332.338 276.21 332.989C276.426 333.098 276.643 333.207 276.969 333.207H277.945H279.138H279.354C280.439 333.207 280.873 331.686 279.897 331.034C279.68 330.926 279.463 330.817 279.246 330.817H277.945L276.86 330.926ZM285.97 330.491C285.536 330.491 285.102 330.926 284.994 331.36C284.777 332.121 285.427 332.881 286.295 332.772L287.379 332.664L288.681 332.555C289.765 332.446 290.091 331.034 289.223 330.491C289.006 330.274 288.681 330.274 288.355 330.274L287.163 330.383L285.97 330.491ZM294.971 329.08C294.645 329.188 294.32 329.405 294.103 329.731C293.778 330.6 294.428 331.469 295.404 331.36L296.055 331.252L297.139 331.034L297.682 330.926C298.766 330.709 298.875 329.188 297.899 328.754C297.682 328.645 297.465 328.645 297.248 328.754L296.706 328.862L295.621 329.08H294.971ZM303.755 326.907C302.562 327.233 302.67 328.971 303.972 329.188C304.188 329.188 304.297 329.188 304.514 329.188L305.49 328.862L306.466 328.536L306.791 328.428C307.116 328.319 307.442 327.993 307.55 327.668C307.767 326.799 306.9 325.93 306.032 326.256L305.707 326.364L304.731 326.69L303.755 326.907ZM312.322 323.758C311.888 323.975 311.671 324.301 311.671 324.735C311.671 325.604 312.539 326.147 313.298 325.821L314.057 325.496L314.924 325.061L315.358 324.844C316.443 324.301 316.117 322.78 315.033 322.672C314.816 322.672 314.599 322.672 314.382 322.78L313.948 322.998L313.081 323.432L312.322 323.758ZM320.455 319.631C319.371 320.282 319.913 321.911 321.106 321.803C321.323 321.803 321.431 321.694 321.648 321.694L321.973 321.477L322.841 320.934L323.709 320.391C324.685 319.739 324.251 318.219 323.058 318.219C322.841 318.219 322.733 318.327 322.516 318.436L321.757 318.979L320.997 319.414L320.455 319.631ZM328.046 314.635C327.07 315.395 327.829 317.024 329.022 316.698C329.131 316.698 329.239 316.59 329.456 316.481L329.998 316.047L330.757 315.504L331.3 315.069C332.059 314.418 331.733 313.114 330.649 313.006C330.324 313.006 329.998 313.006 329.781 313.223L329.239 313.657L328.48 314.2L328.046 314.635ZM334.987 308.77C334.553 309.096 334.553 309.747 334.77 310.182C335.204 310.834 336.071 310.942 336.613 310.399L337.047 309.965L337.698 309.313L338.24 308.77C338.457 308.553 338.566 308.118 338.566 307.793C338.457 306.815 337.264 306.489 336.613 307.141L336.071 307.684L335.421 308.336L334.987 308.77ZM341.06 302.036C340.843 302.362 340.734 302.797 340.843 303.231C341.168 304.1 342.253 304.209 342.795 303.557L343.12 303.122L343.662 302.362L344.205 301.711C344.747 300.95 344.205 299.864 343.229 299.864C342.903 299.864 342.578 300.081 342.361 300.299L341.819 300.95L341.277 301.602L341.06 302.036ZM346.374 294.542C345.831 295.411 346.59 296.497 347.566 296.28C347.892 296.172 348.109 296.063 348.326 295.737L348.542 295.411L348.976 294.651L349.518 293.674C349.735 293.239 349.735 292.696 349.41 292.37C348.868 291.719 347.892 291.827 347.566 292.588L347.024 293.456L346.59 294.217L346.374 294.542ZM350.711 286.614C350.494 287.049 350.603 287.483 350.928 287.917C351.47 288.569 352.446 288.352 352.88 287.592L353.314 286.614L353.639 285.745L353.748 285.419C354.182 284.333 352.88 283.356 351.904 284.116C351.796 284.225 351.687 284.333 351.579 284.551L351.47 284.876L351.145 285.637L350.711 286.614ZM354.182 278.143C353.856 279.229 355.158 280.098 356.025 279.446C356.242 279.337 356.35 279.12 356.35 278.903L356.676 278.143L357.001 277.274L357.218 276.731C357.326 276.296 357.218 275.971 357.001 275.645C356.459 274.993 355.266 275.21 355.049 276.079L354.832 276.622L354.507 277.491L354.182 278.143ZM356.676 269.346C356.459 270.54 357.869 271.192 358.628 270.432C358.736 270.323 358.845 270.106 358.953 269.889L359.062 269.237L359.278 268.368L359.387 267.608C359.604 266.413 358.194 265.762 357.326 266.63C357.218 266.739 357.11 266.956 357.11 267.173L357.001 267.825L356.784 268.694L356.676 269.346ZM358.194 260.44C358.194 260.874 358.411 261.309 358.736 261.526C359.495 261.96 360.363 261.526 360.471 260.657L360.58 260.114L360.688 259.137L360.797 258.268C360.905 257.182 359.495 256.53 358.736 257.399C358.519 257.616 358.519 257.833 358.411 258.05L358.302 258.811L358.194 259.68V260.44ZM358.845 251.317C358.845 252.62 360.58 252.946 361.122 251.751C361.231 251.643 361.231 251.425 361.231 251.317V250.774V249.796V248.927C361.231 247.95 360.146 247.407 359.387 248.059C359.062 248.276 358.953 248.602 358.953 248.927V249.796V250.665L358.845 251.317ZM358.519 242.194C358.628 243.28 359.929 243.606 360.58 242.737C360.797 242.52 360.797 242.194 360.797 241.977V241.434L360.688 240.456L360.58 239.587C360.58 239.37 360.471 239.153 360.255 238.936C359.495 238.067 358.086 238.718 358.194 239.804L358.302 240.565L358.411 241.434L358.519 242.194ZM357.326 233.071C357.435 233.397 357.652 233.722 357.977 233.94C358.845 234.374 359.821 233.614 359.604 232.636L359.495 231.985L359.278 231.007L359.17 230.247C359.062 229.704 358.628 229.378 358.194 229.378C357.435 229.27 356.784 230.03 357.001 230.79L357.11 231.442L357.326 232.311V233.071ZM355.266 224.165C355.374 224.599 355.808 225.034 356.35 225.034C357.11 225.034 357.76 224.274 357.435 223.513L357.218 222.753L356.893 221.884L356.676 221.341C356.35 220.147 354.615 220.255 354.398 221.45C354.398 221.667 354.398 221.776 354.398 221.993L354.507 222.536L354.724 223.405L355.266 224.165ZM352.338 215.585C352.446 215.911 352.772 216.237 353.206 216.237C354.073 216.454 354.832 215.585 354.507 214.716L354.073 213.739L353.748 212.87L353.639 212.653C353.206 211.784 352.013 211.675 351.579 212.544C351.362 212.87 351.362 213.196 351.579 213.522L351.687 213.739L352.013 214.608L352.338 215.585ZM348.542 207.222C349.085 208.308 350.711 207.874 350.711 206.679C350.711 206.462 350.711 206.354 350.603 206.136L350.386 205.702L349.952 204.833L349.518 204.073C348.976 202.987 347.35 203.421 347.35 204.616C347.35 204.833 347.35 204.942 347.458 205.159L347.892 205.919L348.326 206.788L348.542 207.222ZM343.988 199.403C344.205 199.728 344.638 199.946 345.072 199.946C345.94 199.837 346.374 198.86 345.94 198.099L345.398 197.339L344.855 196.47L344.638 196.144C344.422 195.71 343.879 195.601 343.446 195.71C342.686 195.927 342.253 196.796 342.795 197.556L343.012 197.882L343.554 198.642L343.988 199.403ZM338.566 192.017C339.325 192.886 340.734 192.235 340.626 191.04C340.626 190.823 340.518 190.714 340.409 190.497L339.975 190.062L339.325 189.302L338.891 188.759C338.24 187.999 336.939 188.433 336.83 189.411C336.83 189.737 336.939 190.062 337.156 190.28L337.589 190.823L338.24 191.583L338.566 192.017ZM332.493 185.175C333.36 186.044 334.661 185.284 334.445 184.089C334.445 183.872 334.336 183.655 334.119 183.546L333.794 183.22L333.035 182.46L332.384 181.808C331.517 181.048 330.215 181.808 330.432 182.894C330.541 183.112 330.541 183.329 330.757 183.437L331.408 183.98L332.167 184.741L332.493 185.175ZM325.769 178.985C326.528 179.636 327.721 178.985 327.613 178.007C327.613 177.681 327.396 177.464 327.179 177.247L326.853 176.921L325.986 176.269L325.335 175.726C325.01 175.509 324.576 175.4 324.142 175.618C323.383 175.944 323.166 177.03 323.925 177.573L324.576 178.116L325.335 178.767L325.769 178.985ZM318.503 173.554C318.937 173.88 319.479 173.771 319.804 173.554C320.455 173.12 320.347 172.142 319.696 171.708L319.045 171.273L318.178 170.622L317.744 170.405C316.768 169.753 315.575 170.839 316.117 171.925C316.226 172.142 316.334 172.251 316.551 172.359L316.985 172.577L317.852 173.12L318.503 173.554ZM310.695 168.775C311.237 169.101 311.888 168.884 312.213 168.45C312.647 167.907 312.43 167.146 311.78 166.821L311.563 166.712L310.587 166.169L309.719 165.734C308.743 165.191 307.659 166.277 308.092 167.255C308.201 167.472 308.418 167.689 308.635 167.798L309.502 168.232L310.478 168.775H310.695ZM302.562 164.648C303.429 165.083 304.405 164.214 304.08 163.236C303.972 162.911 303.755 162.693 303.429 162.585L302.345 162.15L301.26 161.716C300.176 161.282 299.308 162.368 299.851 163.345C299.959 163.562 300.176 163.78 300.393 163.78L301.369 164.214L302.562 164.648ZM293.995 161.39C294.971 161.716 295.947 160.63 295.404 159.652C295.296 159.435 295.079 159.218 294.754 159.109L294.537 159.001C293.886 158.784 293.127 158.566 292.476 158.349C291.5 158.023 290.633 159.001 291.067 159.978C291.175 160.304 291.392 160.413 291.717 160.521C292.368 160.739 293.019 160.956 293.669 161.173L293.995 161.39ZM285.211 158.566C285.644 158.675 286.078 158.566 286.403 158.241C286.946 157.589 286.62 156.611 285.861 156.394C285.102 156.177 284.343 155.96 283.584 155.743C283.259 155.634 282.933 155.743 282.716 155.851C281.849 156.394 281.957 157.698 282.933 158.023C283.801 158.241 284.56 158.349 285.211 158.566ZM276.318 156.286C277.511 156.611 278.27 155.091 277.402 154.331C277.294 154.222 277.077 154.113 276.86 154.113C276.101 154.005 275.342 153.788 274.583 153.57C273.607 153.353 272.739 154.548 273.39 155.417C273.498 155.634 273.824 155.851 274.041 155.851C274.8 155.96 275.667 156.177 276.318 156.286ZM267.426 154.331C268.51 154.548 269.269 153.245 268.51 152.376C268.293 152.159 268.076 152.05 267.859 152.05C267.1 151.941 266.341 151.724 265.582 151.616C264.389 151.398 263.738 152.81 264.606 153.679C264.714 153.788 264.931 153.896 265.148 153.896C265.907 154.005 266.666 154.222 267.426 154.331ZM258.316 152.702C259.401 152.919 260.16 151.507 259.292 150.747C259.075 150.638 258.967 150.529 258.641 150.421C257.882 150.312 257.123 150.204 256.364 150.095C255.171 149.878 254.521 151.507 255.605 152.267C255.713 152.376 255.93 152.376 256.039 152.376C256.798 152.484 257.557 152.593 258.316 152.702ZM249.207 151.29C250.183 151.398 250.942 150.312 250.291 149.443C250.074 149.226 249.857 149.009 249.532 149.009C248.773 148.9 248.014 148.792 247.255 148.683C246.062 148.575 245.52 149.986 246.387 150.747C246.496 150.855 246.713 150.964 246.929 150.964C247.689 151.072 248.448 151.181 249.207 151.29ZM240.097 150.204C240.64 150.204 241.073 149.986 241.29 149.443C241.616 148.683 241.073 147.923 240.314 147.814C239.555 147.706 238.796 147.597 238.037 147.597C236.952 147.488 236.302 148.9 237.169 149.661C237.386 149.769 237.603 149.878 237.82 149.878C238.579 149.986 239.338 150.095 240.097 150.204ZM230.88 149.335C231.964 149.443 232.615 148.031 231.747 147.271C231.53 147.163 231.313 147.054 231.096 147.054C230.337 146.945 229.578 146.945 228.819 146.837C228.277 146.837 227.843 147.054 227.626 147.488C227.301 148.249 227.843 149.009 228.602 149.118C229.361 149.118 230.12 149.226 230.88 149.335ZM221.662 148.466C222.855 148.575 223.397 147.054 222.421 146.402C222.312 146.294 222.095 146.185 221.879 146.185C221.119 146.077 220.36 145.968 219.601 145.968C219.167 145.968 218.734 146.077 218.517 146.402C217.975 147.163 218.408 148.14 219.276 148.249C220.143 148.249 220.903 148.357 221.662 148.466ZM212.444 147.271C213.42 147.38 214.071 146.402 213.637 145.534C213.42 145.208 213.203 144.99 212.769 144.99C212.01 144.882 211.251 144.773 210.492 144.665C210.167 144.556 209.733 144.665 209.516 144.99C208.865 145.642 209.191 146.728 210.167 146.945C210.926 147.054 211.685 147.163 212.444 147.271ZM203.334 145.534C204.419 145.751 205.178 144.556 204.419 143.687C204.202 143.47 204.094 143.361 203.768 143.253C203.009 143.036 202.25 142.927 201.491 142.71C200.515 142.493 199.756 143.579 200.19 144.447C200.406 144.665 200.623 144.882 200.949 144.99C201.816 145.208 202.575 145.425 203.334 145.534ZM194.334 143.253C195.418 143.579 196.286 142.275 195.526 141.406C195.418 141.189 195.201 141.081 194.984 140.972C194.225 140.755 193.574 140.538 192.815 140.32C191.731 139.995 190.863 141.189 191.514 142.167C191.622 142.384 191.839 142.493 192.056 142.601C192.815 142.818 193.574 143.036 194.334 143.253ZM185.55 140.212C185.983 140.429 186.417 140.32 186.742 139.995C187.285 139.452 187.176 138.365 186.309 138.148C185.55 137.822 184.899 137.605 184.248 137.279C183.164 136.845 182.079 138.148 182.947 139.126C183.055 139.234 183.164 139.343 183.381 139.452C184.031 139.56 184.79 139.886 185.55 140.212ZM176.982 136.193C177.308 136.411 177.633 136.411 178.067 136.193C178.934 135.759 178.934 134.564 178.175 134.13C177.525 133.804 176.874 133.37 176.223 133.044C175.898 132.826 175.573 132.826 175.247 132.935C174.38 133.261 174.271 134.564 175.139 134.999C175.681 135.433 176.332 135.867 176.982 136.193ZM169.066 131.197C169.933 131.849 171.235 130.98 170.909 129.894C170.801 129.677 170.693 129.46 170.476 129.351C169.825 128.917 169.283 128.482 168.741 127.939C167.981 127.288 166.788 127.939 166.897 128.917C166.897 129.242 167.114 129.46 167.331 129.677C167.873 130.22 168.415 130.763 169.066 131.197ZM162.017 124.898C162.776 125.767 164.186 125.007 163.969 123.921C163.969 123.703 163.86 123.595 163.644 123.378C163.101 122.835 162.668 122.292 162.125 121.64C161.8 121.206 161.258 121.097 160.824 121.314C160.065 121.64 159.848 122.509 160.39 123.16C161.041 123.703 161.583 124.247 162.017 124.898ZM156.486 117.187C156.703 117.621 157.137 117.839 157.679 117.73C158.547 117.621 158.98 116.753 158.547 115.992C158.221 115.341 157.896 114.689 157.571 114.037C157.354 113.603 156.812 113.277 156.269 113.386C155.51 113.494 155.185 114.363 155.402 115.015C155.727 115.775 156.161 116.427 156.486 117.187ZM153.016 108.281C153.124 108.607 153.341 108.933 153.775 109.042C154.643 109.367 155.51 108.607 155.293 107.63C155.076 106.869 154.968 106.218 154.86 105.457C154.643 104.263 152.908 104.154 152.582 105.349C152.582 105.566 152.474 105.675 152.582 105.892C152.691 106.761 152.799 107.521 153.016 108.281ZM151.932 98.8325C151.932 100.027 153.45 100.462 154.1 99.3755C154.209 99.1583 154.209 99.0497 154.209 98.8325C154.209 98.0722 154.209 97.312 154.317 96.5517C154.426 95.357 152.799 94.814 152.148 95.9001C152.04 96.0087 152.04 96.2259 152.04 96.4431C152.04 97.2034 151.932 98.0722 151.932 98.8325ZM153.45 89.3836C153.341 89.6009 153.341 89.9267 153.45 90.1439C153.884 91.23 155.293 91.1214 155.619 90.1439C155.836 89.4922 156.052 88.6234 156.378 88.0804C156.595 87.6459 156.378 87.1029 156.052 86.7771C155.402 86.234 154.534 86.4513 154.209 87.2115C153.992 87.8631 153.667 88.6234 153.45 89.3836ZM157.245 80.6951C157.028 81.1295 157.028 81.5639 157.354 81.9984C157.896 82.65 158.872 82.5414 159.306 81.8898C159.631 81.2381 160.065 80.5865 160.499 79.9348C160.716 79.5004 160.716 78.9574 160.39 78.5229C159.848 77.8713 158.98 77.9799 158.547 78.6315C158.113 79.3918 157.679 80.0434 157.245 80.6951ZM162.668 72.984C162.017 73.7442 162.668 74.9389 163.644 74.8303C163.969 74.8303 164.294 74.6131 164.511 74.3959C164.945 73.8528 165.487 73.2012 166.029 72.6581C166.789 71.7893 165.921 70.3774 164.728 70.8118C164.511 70.9204 164.403 71.029 164.294 71.1376C163.644 71.7893 163.21 72.4409 162.668 72.984Z" fill="white"/>
<path fill-rule="evenodd" clip-rule="evenodd" d="M183.164 162.15C183.381 161.825 183.814 161.716 184.14 161.933C184.465 162.15 184.574 162.585 184.357 162.911C184.248 163.019 155.293 208.2 178.175 234.483C178.392 234.809 178.392 235.243 178.067 235.569C177.741 235.786 177.308 235.786 176.982 235.46C153.558 208.309 183.055 162.259 183.164 162.15Z" fill="#000618"/>
<path fill-rule="evenodd" clip-rule="evenodd" d="M267.751 155.851C267.534 155.525 267.642 155.091 267.968 154.874C268.293 154.657 268.727 154.765 268.944 155.091C268.944 155.2 285.536 180.94 268.076 200.706C267.859 201.032 267.317 201.032 266.992 200.815C266.666 200.597 266.666 200.054 266.883 199.729C283.801 180.722 267.751 155.96 267.751 155.851Z" fill="#000618"/>
<path fill-rule="evenodd" clip-rule="evenodd" d="M187.827 131.632L175.681 145.099C175.681 145.099 181.537 155.417 180.995 169.101C180.453 182.677 134.689 258.051 219.168 257.616C303.755 257.182 256.689 213.522 256.689 213.522C256.689 213.522 284.56 204.507 270.462 163.997C256.364 123.595 187.827 131.632 187.827 131.632Z" fill="#000618"/>
<path fill-rule="evenodd" clip-rule="evenodd" d="M257.449 214.282C256.906 213.739 256.689 213.522 256.689 213.522C256.689 213.522 257.665 213.196 259.184 212.436C261.57 209.72 264.064 206.571 266.45 202.878C277.945 184.958 265.69 160.196 265.69 160.196L259.184 158.241C259.184 158.241 246.17 153.571 242.7 152.376C239.23 151.181 198.888 153.788 187.393 175.292C175.898 196.796 188.694 228.075 188.694 228.075C188.694 228.075 236.302 226.554 239.013 226.337C240.965 226.337 248.773 223.296 257.449 214.282Z" fill="#01020E"/>
<path fill-rule="evenodd" clip-rule="evenodd" d="M280.114 226.12C293.669 232.093 295.513 244.475 297.248 258.376C298.766 270.649 299.308 289.221 296.055 317.35C292.802 345.479 241.507 280.206 241.507 280.206L280.114 226.12Z" fill="#EF8871"/>
<path fill-rule="evenodd" clip-rule="evenodd" d="M200.298 225.686L187.068 218.952C187.068 218.952 173.187 222.427 166.029 231.442C158.872 240.456 137.291 317.133 136.532 326.473C135.665 335.813 142.063 371.545 153.667 371.545C165.27 371.545 171.018 293.456 171.018 293.456L180.453 264.133L200.298 225.686Z" fill="#F4AD85"/>
<path fill-rule="evenodd" clip-rule="evenodd" d="M200.298 225.686L187.068 218.952C187.068 218.952 182.622 220.038 177.416 222.645C179.151 223.513 180.453 225.577 180.344 230.247C179.91 242.52 161.258 289.221 157.245 302.254C153.124 315.286 149.871 323.106 149.871 323.106L141.412 305.295C140.653 308.227 139.894 310.834 139.352 313.332C142.497 330.491 146.509 353.951 147.052 367.418C149.004 370.024 151.281 371.654 153.667 371.654C165.27 371.654 171.018 293.565 171.018 293.565L180.453 264.241L200.298 225.686Z" fill="#EF8871"/>
<path fill-rule="evenodd" clip-rule="evenodd" d="M235.217 208.852C235.217 208.852 270.245 221.341 280.114 226.12C280.114 226.12 278.27 228.075 276.101 238.827C273.932 249.688 276.101 265.327 273.824 280.858C272.197 292.045 264.606 348.737 260.594 379.256L174.271 372.305C174.271 370.893 174.163 369.264 174.163 367.418C181.212 372.957 188.044 373.174 183.814 356.992C176.44 328.862 177.958 279.881 180.344 265.219C182.838 250.557 186.417 235.026 182.947 220.147C185.224 218.192 235.217 208.852 235.217 208.852Z" fill="#1D135C"/>
<path fill-rule="evenodd" clip-rule="evenodd" d="M258.208 217.323C266.992 220.581 275.884 224.057 280.114 226.12C280.114 226.12 278.27 228.075 276.101 238.827C273.932 249.688 276.101 265.327 273.824 280.858C273.498 283.139 272.956 287.157 272.197 292.479C252.677 295.52 195.093 302.145 181.212 300.95C180.236 300.842 179.26 300.733 178.284 300.516C178.284 285.202 179.151 271.952 180.236 265.327C180.344 265.001 180.344 264.567 180.453 264.241C185.333 278.686 246.821 286.723 246.821 286.723C246.821 286.723 257.015 264.133 254.412 255.77C251.809 247.407 239.555 247.624 239.555 247.624L239.88 240.13C239.88 240.13 252.135 223.513 255.063 218.518C255.388 217.866 256.473 217.431 258.208 217.323Z" fill="#0D0350"/>
<path fill-rule="evenodd" clip-rule="evenodd" d="M263.196 219.169L263.955 219.495C262.437 225.794 260.268 233.18 257.449 237.524C254.846 241.434 251.809 245.018 247.255 247.624C242.808 250.231 236.952 251.751 228.819 251.534C221.77 251.317 216.023 248.71 211.685 245.018C205.937 240.239 202.358 233.505 200.84 227.966C198.563 220.147 196.502 217.54 195.743 216.888L196.611 216.671C197.587 217.866 199.539 220.798 201.599 227.749C203.118 233.18 206.588 239.805 212.227 244.475C216.456 248.059 221.987 250.665 228.928 250.774C236.844 250.991 242.592 249.471 246.929 246.973C251.267 244.475 254.304 240.891 256.798 237.089C259.617 232.745 261.678 225.468 263.196 219.169ZM277.619 224.925C277.836 225.034 278.053 225.143 278.27 225.251C276.535 228.292 274.258 234.483 271.98 247.624C269.378 263.372 272.414 270.432 274.691 273.473C274.691 273.799 274.691 274.233 274.583 274.559C272.089 271.735 268.402 264.567 271.221 247.516C273.39 234.591 275.776 228.184 277.619 224.925ZM179.693 269.671C179.802 269.128 179.802 268.694 179.91 268.26C181.862 264.35 189.345 247.298 185.116 219.386C185.333 219.278 185.55 219.278 185.875 219.169C190.755 251.1 180.344 269.02 180.127 269.454C180.127 269.454 180.127 269.563 180.019 269.563C179.91 269.671 179.802 269.671 179.693 269.671Z" fill="#42349A"/>
<path fill-rule="evenodd" clip-rule="evenodd" d="M232.506 171.382H232.723C240.314 171.273 246.713 177.464 246.713 185.067L246.929 213.196C252.026 215.042 258.099 217.323 263.847 219.495C254.846 238.936 244.327 251.751 227.409 248.059C204.31 243.063 205.07 223.513 198.021 216.345C204.636 214.934 212.335 213.413 219.059 212.001L218.842 185.392C218.734 177.681 224.915 171.382 232.506 171.382Z" fill="#EF8871"/>
<path fill-rule="evenodd" clip-rule="evenodd" d="M245.845 180.396C246.387 181.808 246.713 183.437 246.713 185.067L246.929 213.196C252.026 215.042 258.099 217.323 263.847 219.495C257.232 233.723 249.749 244.475 239.555 247.624C255.822 236.655 250.833 223.079 247.363 221.667C243.893 220.255 216.456 212.544 216.456 212.544C217.324 212.327 218.191 212.218 219.059 212.001L218.842 185.392C218.842 181.048 220.794 177.247 223.831 174.64C231.096 174.532 238.362 176.812 245.845 180.396Z" fill="#EA745D"/>
<path fill-rule="evenodd" clip-rule="evenodd" d="M263.738 144.773C263.955 144.773 264.281 144.773 264.498 144.773C269.378 145.099 273.607 148.9 274.366 153.896C275.234 159.761 271.221 165.3 265.257 166.278C259.401 167.146 253.87 163.128 252.894 157.155C252.352 153.679 253.545 150.421 255.713 148.032C255.822 151.29 256.906 155.091 261.027 154.982L260.268 148.792C259.834 146.294 262.003 144.882 263.738 144.773Z" fill="#EA745D"/>
<path fill-rule="evenodd" clip-rule="evenodd" d="M186.526 156.937C186.309 157.046 185.983 157.046 185.766 157.155C181.103 158.784 178.067 163.454 178.609 168.558C179.26 174.532 184.682 178.767 190.538 178.116C196.502 177.464 200.732 172.034 200.081 166.169C199.647 162.693 197.695 159.87 194.984 158.132C195.635 161.282 195.743 165.3 191.731 166.169L190.972 159.978C190.755 157.48 188.261 156.611 186.526 156.937Z" fill="#EA745D"/>
<path fill-rule="evenodd" clip-rule="evenodd" d="M219.927 97.2034C240.097 94.4883 258.858 108.824 261.461 129.025L265.907 162.476C268.618 182.677 254.304 201.466 234.133 204.073C213.962 206.788 195.201 192.452 192.598 172.251L188.152 138.8C185.441 118.599 199.756 99.9186 219.927 97.2034Z" fill="#F4AD85"/>
<path fill-rule="evenodd" clip-rule="evenodd" d="M219.927 97.2034C239.013 94.7055 256.906 107.412 260.919 125.984C260.702 127.722 260.16 129.568 259.184 131.415L242.049 130.437C242.049 130.437 230.771 151.941 207.672 157.263C201.491 158.675 199.539 164.974 200.732 170.948C203.877 185.501 216.239 206.245 246.929 199.946C243.025 202.118 238.688 203.638 234.024 204.181C213.854 206.897 195.093 192.56 192.49 172.36L188.044 138.909C185.441 118.599 199.756 99.9186 219.927 97.2034Z" fill="#EF8871"/>
<path fill-rule="evenodd" clip-rule="evenodd" d="M213.203 170.839C215.806 170.405 218.3 172.251 218.734 174.966C219.167 177.681 217.324 180.071 214.613 180.505C212.01 180.939 209.516 179.093 209.082 176.378C208.757 173.771 210.6 171.273 213.203 170.839Z" fill="#EA745D"/>
<path fill-rule="evenodd" clip-rule="evenodd" d="M253.111 164.54C255.822 164.105 258.208 165.952 258.641 168.667C259.075 171.382 257.232 173.771 254.521 174.206C251.809 174.64 249.424 172.794 248.99 170.079C248.665 167.364 250.4 164.974 253.111 164.54Z" fill="#EA745D"/>
<path fill-rule="evenodd" clip-rule="evenodd" d="M207.564 151.507C206.805 151.398 206.154 151.941 206.046 152.702C205.937 153.462 206.479 154.114 207.239 154.222C208.54 154.439 209.95 154.331 211.251 154.114C213.962 153.679 216.456 152.484 218.191 150.312C218.625 149.769 218.625 148.792 217.975 148.357C217.432 147.923 216.456 147.923 216.023 148.575C213.962 150.964 210.6 151.833 207.564 151.507Z" fill="#01020E"/>
<path fill-rule="evenodd" clip-rule="evenodd" d="M268.835 233.614C268.835 233.614 270.245 233.397 270.57 234.483C270.896 235.569 266.233 241.542 265.907 241.759C265.582 241.977 256.364 240.782 256.364 240.782C256.364 240.782 255.822 240.348 255.93 240.022C256.039 239.696 256.364 239.37 256.364 239.37L268.835 233.614Z" fill="#000618"/>
<path fill-rule="evenodd" clip-rule="evenodd" d="M253.87 140.646C250.833 140.103 247.472 140.646 245.194 142.927C244.652 143.47 243.785 143.47 243.242 142.927C242.7 142.384 242.7 141.515 243.242 140.972C245.194 139.017 247.689 137.931 250.508 137.714C251.809 137.605 253.219 137.605 254.521 137.931C255.28 138.04 255.713 138.8 255.605 139.56C255.388 140.32 254.629 140.863 253.87 140.646Z" fill="#01020E"/>
<path fill-rule="evenodd" clip-rule="evenodd" d="M197.262 155.525C197.262 155.525 197.587 158.023 197.912 160.304C198.238 162.585 193.791 168.667 192.056 168.884L190.972 160.521C190.972 160.521 189.67 156.829 185.007 157.48C168.307 142.818 166.789 116.101 180.344 100.353C193.9 84.605 226.976 79.2832 232.94 80.4779C239.013 81.6726 246.279 90.687 246.279 90.687C246.279 90.687 250.617 85.691 255.497 87.3202C260.377 88.9493 279.463 115.775 280.331 122.943C281.307 130.111 269.269 146.294 269.269 146.294C264.606 146.945 264.281 150.855 264.281 150.855L264.931 156.068C263.196 156.286 261.895 154.114 261.57 151.833C261.244 149.552 260.919 147.054 260.919 147.054C245.52 142.493 237.278 123.812 237.278 123.812C237.278 123.812 221.445 155.851 197.262 155.525Z" fill="#000618"/>
<path fill-rule="evenodd" clip-rule="evenodd" d="M171.235 126.202C171.235 119.359 172.753 112.626 176.006 106.761C191.08 118.49 215.372 126.31 235.651 81.4554C236.953 82.107 238.254 82.9759 239.447 83.9534C231.639 106.761 211.576 146.511 171.235 126.202Z" fill="#0F1630"/>
<path fill-rule="evenodd" clip-rule="evenodd" d="M197.262 155.525C197.262 155.525 197.587 158.023 197.912 160.304C198.238 162.585 193.791 168.667 192.056 168.884L190.972 160.521C190.972 160.521 189.67 156.829 185.007 157.48C178.501 151.724 174.271 144.122 172.428 136.085C172.428 136.085 200.949 155.96 236.085 119.033C236.085 119.033 252.135 144.122 275.667 136.628C272.631 141.841 269.378 146.185 269.378 146.185C264.714 146.837 264.389 150.747 264.389 150.747L265.04 155.96C263.305 156.177 262.003 154.005 261.678 151.724C261.353 149.443 261.027 146.945 261.027 146.945C245.628 142.384 237.386 123.704 237.386 123.704C237.386 123.704 221.445 155.851 197.262 155.525Z" fill="#01020E"/>
<path fill-rule="evenodd" clip-rule="evenodd" d="M267.968 205.159L270.354 205.811C270.354 205.811 271.763 193.212 271.763 192.017C271.763 190.823 271.113 189.085 270.245 187.021C269.269 184.958 265.907 177.247 265.69 176.921C265.474 176.704 263.305 178.55 264.281 182.026C265.257 185.392 266.992 190.062 266.883 191.04C266.883 192.017 264.606 200.706 264.606 200.706L267.968 205.159Z" fill="#EF8871"/>
<path fill-rule="evenodd" clip-rule="evenodd" d="M270.462 205.267C270.462 204.073 270.028 202.118 267.642 200.597C265.257 199.185 259.509 194.624 258.316 194.081C257.123 193.538 255.713 193.755 254.304 194.733C252.894 195.601 248.339 198.751 247.363 199.729C246.387 200.706 244.001 206.897 243.676 207.548C243.351 208.2 245.737 208.743 247.689 207.331C247.689 207.331 246.713 209.395 246.387 210.046C246.062 210.698 245.628 215.911 245.628 216.997C245.628 218.083 248.448 217.54 249.532 215.151C249.532 215.151 249.424 216.888 249.424 217.431C249.424 217.975 251.05 217.757 251.05 217.757C251.05 217.757 253.002 228.184 253.436 229.487C253.87 230.79 270.354 290.198 270.354 290.198L294.211 288.786C294.211 288.786 268.185 230.464 267.968 229.595C266.45 222.102 270.462 211.349 270.462 205.267Z" fill="#F4AD85"/>
<path fill-rule="evenodd" clip-rule="evenodd" d="M250.942 217.649L251.05 218.192V218.409V218.518V218.626C251.593 221.341 252.894 228.184 253.219 229.161C253.545 230.139 262.654 263.046 267.426 279.989C272.522 277.926 276.535 275.536 276.535 275.536C276.535 275.536 258.099 232.419 257.666 230.79C257.232 229.052 258.208 227.749 257.882 227.315C257.557 226.88 256.147 226.229 255.713 224.925C255.388 223.731 254.521 219.386 255.063 217.649C255.497 216.345 256.906 216.454 257.557 216.671C258.316 216.888 258.967 217.106 259.401 217.106C260.377 217.214 260.268 216.671 260.268 216.671C260.485 214.716 262.329 212.001 262.329 212.001C261.353 211.458 259.726 208.852 259.726 208.852C258.642 208.417 257.882 207.874 257.123 208.417C256.364 208.96 254.087 211.349 254.087 211.567C254.087 211.784 253.87 214.065 253.436 215.585C253.002 217.214 250.942 217.649 250.942 217.649Z" fill="#EF8871"/>
<path fill-rule="evenodd" clip-rule="evenodd" d="M144.124 381.971H317.31C320.021 381.971 322.19 379.582 322.19 376.758C322.19 373.934 320.021 371.545 317.31 371.545H144.124C141.412 371.545 139.243 373.934 139.243 376.758C139.243 379.691 141.412 381.971 144.124 381.971Z" fill="#000618"/>
<path fill-rule="evenodd" clip-rule="evenodd" d="M320.455 271.409H263.413H197.912H140.979C138.267 271.409 136.424 273.581 136.858 276.297L150.522 367.526C150.956 370.242 153.45 372.414 156.052 372.414H182.73H278.487H305.164C307.876 372.414 310.37 370.242 310.695 367.526L324.359 276.297C324.901 273.69 323.058 271.409 320.455 271.409Z" fill="#000618"/>
<path fill-rule="evenodd" clip-rule="evenodd" d="M316.443 275.753H262.003H199.43H144.991C142.388 275.753 140.653 277.817 141.087 280.424L154.209 367.635C154.643 370.242 157.028 372.305 159.523 372.305H185.007H276.535H302.02C304.622 372.305 307.008 370.242 307.333 367.635L320.455 280.424C320.781 277.817 318.937 275.753 316.443 275.753Z" fill="#0F1630"/>
<path fill-rule="evenodd" clip-rule="evenodd" d="M150.739 345.262L154.1 367.635C154.534 370.242 156.92 372.305 159.414 372.305H184.899H276.426H301.911C304.514 372.305 306.9 370.242 307.225 367.635L320.347 280.424C320.672 278.36 319.588 276.622 317.853 275.971C298.224 309.856 249.966 365.463 150.739 345.262Z" fill="#000618"/>
<path fill-rule="evenodd" clip-rule="evenodd" d="M230.663 349.063C241.182 349.063 249.749 341.895 249.749 333.098C249.749 324.301 241.182 317.133 230.663 317.133C220.144 317.133 211.576 324.301 211.576 333.098C211.576 341.895 220.144 349.063 230.663 349.063Z" fill="#000618"/>
<path fill-rule="evenodd" clip-rule="evenodd" d="M230.663 321.043C235.976 321.043 240.64 323.432 243.134 327.016L221.011 342.112C218.083 339.94 216.131 336.682 216.131 333.098C216.239 326.364 222.638 321.043 230.663 321.043ZM242.483 340.158L235.868 336.465L224.807 344.067C226.65 344.719 228.711 345.153 230.771 345.153C235.543 345.262 239.772 343.199 242.483 340.158Z" fill="white"/>
<path fill-rule="evenodd" clip-rule="evenodd" d="M249.966 150.747C248.231 150.964 247.146 152.593 247.363 154.331L248.014 158.349C248.231 159.978 249.857 161.173 251.593 160.956C253.219 160.739 254.412 159.109 254.195 157.372L253.545 153.353C253.219 151.616 251.701 150.421 249.966 150.747Z" fill="#01020E"/>
<path fill-rule="evenodd" clip-rule="evenodd" d="M212.878 156.286C211.143 156.503 210.058 158.132 210.275 159.87L210.926 163.888C211.143 165.517 212.769 166.712 214.504 166.495C216.131 166.278 217.324 164.648 217.107 162.911L216.456 158.892C216.131 157.263 214.613 156.068 212.878 156.286Z" fill="#01020E"/>
<path fill-rule="evenodd" clip-rule="evenodd" d="M246.713 178.224C247.146 178.659 247.255 179.31 246.929 179.745C246.604 180.179 245.845 180.288 245.411 179.853C245.411 179.853 241.724 176.595 235.109 182.677C234.675 183.112 234.024 183.003 233.591 182.569C233.157 182.134 233.157 181.374 233.591 181.048C241.507 173.663 246.713 178.224 246.713 178.224Z" fill="#EF8871"/>
<path fill-rule="evenodd" clip-rule="evenodd" d="M269.811 233.831C269.811 233.831 270.245 233.94 270.354 234.483C270.462 235.134 266.775 239.913 256.364 240.239C256.364 240.239 256.147 240.13 256.039 240.022C256.039 239.913 256.147 239.696 256.147 239.696V239.479C256.147 239.479 255.822 239.696 255.822 240.022C255.822 240.348 257.34 246.755 257.666 248.384C257.991 250.014 261.136 249.579 263.738 248.928C266.341 248.276 272.739 246.104 274.366 242.628C274.366 242.628 274.583 241.759 274.366 240.999C274.149 240.239 270.896 234.266 270.787 233.94C270.57 233.614 270.137 233.397 269.703 233.505L269.811 233.831Z" fill="#0F1630"/>
<path fill-rule="evenodd" clip-rule="evenodd" d="M261.244 239.805C259.834 240.13 258.208 240.348 256.364 240.348C256.364 240.348 256.147 240.239 256.039 240.13C256.039 240.022 256.147 239.805 256.147 239.805V239.587C256.147 239.587 255.822 239.805 255.822 240.13C255.822 240.456 257.34 246.864 257.666 248.493C257.991 250.122 261.136 249.688 263.738 249.036C264.064 248.928 264.606 248.819 265.04 248.71L261.244 239.805Z" fill="#000618"/>
<path fill-rule="evenodd" clip-rule="evenodd" d="M87.5152 386.967H373.593C377.172 386.967 380.1 389.9 380.1 393.484C380.1 397.068 377.172 400 373.593 400H87.5152C83.9365 400 81.0085 397.068 81.0085 393.484C80.9 389.9 83.9365 386.967 87.5152 386.967Z" fill="#000618"/>
<path fill-rule="evenodd" clip-rule="evenodd" d="M73.5258 376.758H387.366C391.921 376.758 395.716 380.559 395.716 385.121C395.716 389.682 391.921 393.484 387.366 393.484H73.5258C68.9711 393.484 65.1755 389.682 65.1755 385.121C65.284 380.559 68.9711 376.758 73.5258 376.758Z" fill="#BE865E"/>
<path d="M281.198 376.758H263.847V393.484H281.198V376.758Z" fill="#915E40"/>
<path d="M299.2 376.758H290.199V393.484H299.2V376.758Z" fill="#915E40"/>
<path d="M313.189 376.758H308.635V393.484H313.189V376.758Z" fill="#915E40"/>
<path d="M348 376.758H328.589V393.484H348V376.758Z" fill="#915E40"/>
<path d="M372.184 376.758H362.532V393.484H372.184V376.758Z" fill="#915E40"/>
<path fill-rule="evenodd" clip-rule="evenodd" d="M74.2849 379.473H226.867C229.578 379.473 231.856 381.754 231.856 384.469C231.856 387.184 229.578 389.465 226.867 389.465H74.2849C71.5738 389.465 69.2964 387.184 69.2964 384.469C69.2964 381.754 71.5738 379.473 74.2849 379.473Z" fill="#D49D80"/>
<path fill-rule="evenodd" clip-rule="evenodd" d="M175.356 38.5555L178.934 59.1909L225.24 21.83L176.874 33.7768L175.356 38.5555Z" fill="#D5EAF5"/>
<path fill-rule="evenodd" clip-rule="evenodd" d="M178.934 59.1909L196.828 44.8547C197.045 43.2256 197.695 41.1621 197.695 41.1621L182.73 45.1806L178.934 59.1909Z" fill="#ECF6FC"/>
<path fill-rule="evenodd" clip-rule="evenodd" d="M225.24 21.83L162.668 33.451L175.356 38.5555L225.24 21.83Z" fill="white"/>
<path fill-rule="evenodd" clip-rule="evenodd" d="M225.24 21.83L197.153 59.2995L182.621 45.1805L225.24 21.83Z" fill="white"/>
<path fill-rule="evenodd" clip-rule="evenodd" d="M64.6333 214.39C70.7062 212.979 77.1045 212.218 83.6112 212.218C92.7205 212.218 100.095 204.724 100.095 195.71C100.095 194.95 99.9864 194.19 99.8779 193.429H126.013C129.917 193.429 133.171 196.687 133.171 200.597V230.247V232.419V251.317C133.171 251.643 132.954 251.969 132.628 252.077C132.303 252.186 131.978 252.186 131.761 251.86L119.506 239.587H71.7906C67.8866 239.587 64.6333 236.329 64.6333 232.419V214.39Z" fill="#A6CAE4"/>
<path fill-rule="evenodd" clip-rule="evenodd" d="M69.0795 190.605H123.41C127.315 190.605 130.568 193.864 130.568 197.774V227.423V229.595V248.493C130.568 248.819 130.351 249.145 130.026 249.253C129.7 249.362 129.375 249.362 129.158 249.036L117.012 236.763H69.0795C65.1755 236.763 61.9221 233.505 61.9221 229.595V197.774C61.9221 193.864 65.1755 190.605 69.0795 190.605Z" fill="#009C10"/>
<path fill-rule="evenodd" clip-rule="evenodd" d="M103.782 203.53H112.783C115.06 203.53 117.121 204.507 118.639 206.028C120.157 207.548 121.025 209.72 121.025 212.11V212.218C121.025 214.499 120.049 216.563 118.639 218.083C117.121 219.604 115.06 220.581 112.783 220.581H112.674H103.782L87.8405 228.618C87.5152 228.835 87.0814 228.835 86.756 228.835C86.4307 228.835 85.9969 228.727 85.6716 228.509C85.3463 228.292 85.1294 227.966 84.9125 227.641C84.6956 227.315 84.6956 226.989 84.6956 226.554L84.804 197.448C84.804 197.013 84.9125 196.687 85.0209 196.362C85.2378 196.036 85.4547 195.71 85.78 195.493C86.1054 195.276 86.4307 195.167 86.8645 195.167C87.1898 195.167 87.6236 195.276 87.9489 195.384H88.0574L103.782 203.53ZM112.783 205.81H103.565C103.348 205.81 103.24 205.81 103.023 205.702L87.0814 197.556L86.9729 226.554L102.914 218.518C103.023 218.409 103.24 218.409 103.457 218.409H112.566H112.674C114.301 218.409 115.819 217.757 116.904 216.563C117.988 215.477 118.639 213.956 118.747 212.218V212.11C118.747 210.372 118.097 208.743 117.012 207.657C115.928 206.571 114.41 205.81 112.783 205.81Z" fill="white"/>
<path fill-rule="evenodd" clip-rule="evenodd" d="M114.735 219.278V229.487C114.735 231.442 113.108 233.071 111.156 233.071C109.204 233.071 107.578 231.442 107.578 229.487V219.604H112.783C113.434 219.604 114.084 219.495 114.735 219.278Z" fill="white"/>
<path d="M106.927 204.616H105.192V219.495H106.927V204.616Z" fill="white"/>
<path d="M112.349 204.616H110.614V219.495H112.349V204.616Z" fill="white"/>
<path fill-rule="evenodd" clip-rule="evenodd" d="M81.4422 207.222C82.0929 207.331 82.4182 207.874 82.4182 208.526C82.3098 209.177 81.7676 209.503 81.1169 209.503L72.4413 207.983C71.7906 207.874 71.4653 207.331 71.4653 206.679C71.5737 206.028 72.116 205.702 72.7666 205.702L81.4422 207.222ZM80.7916 221.233C81.3338 221.015 81.9845 221.233 82.3098 221.776C82.5267 222.319 82.3098 222.97 81.7676 223.296L76.02 226.011C75.4778 226.337 74.8271 226.011 74.5017 225.468C74.2849 224.925 74.5017 224.274 75.044 223.948L80.7916 221.233ZM81.7676 200.815C82.3098 201.032 82.5267 201.792 82.3098 202.335C81.9845 202.878 81.3338 203.095 80.7916 202.878L74.2849 199.728C73.7426 199.511 73.5257 198.751 73.7426 198.208C73.9595 197.665 74.7186 197.448 75.2609 197.665L81.7676 200.815ZM81.0085 214.608C81.6591 214.499 82.2014 214.934 82.3098 215.585C82.4182 216.237 81.9845 216.78 81.3338 216.888L72.6582 218.409C72.0075 218.518 71.4653 218.083 71.3568 217.431C71.2484 216.78 71.6822 216.237 72.3328 216.128L81.0085 214.608Z" fill="white"/>
<path fill-rule="evenodd" clip-rule="evenodd" d="M371.533 61.1458H315.033C310.912 61.1458 307.55 64.5126 307.55 68.6397V99.4841V101.765V121.423C307.55 121.749 307.767 122.074 308.092 122.183C308.418 122.292 308.743 122.292 308.96 121.966L321.648 109.259H371.424C375.545 109.259 378.907 105.892 378.907 101.765V68.6397C378.907 64.5126 375.545 61.1458 371.533 61.1458Z" fill="#A6CAE4"/>
<path fill-rule="evenodd" clip-rule="evenodd" d="M368.279 61.1458H311.78C307.659 61.1458 304.297 64.5126 304.297 68.6397V99.4841V101.765V121.423C304.297 121.749 304.514 122.074 304.839 122.183C305.164 122.292 305.49 122.292 305.707 121.966L318.395 109.259H368.171C372.292 109.259 375.654 105.892 375.654 101.765V68.6397C375.762 64.5126 372.4 61.1458 368.279 61.1458Z" fill="#009C10"/>
<path fill-rule="evenodd" clip-rule="evenodd" d="M325.877 84.1705C328.805 84.1705 331.3 81.7812 331.3 78.7402C331.3 75.8078 328.914 73.3098 325.877 73.3098C322.949 73.3098 320.455 75.6992 320.455 78.7402C320.564 81.6726 322.949 84.1705 325.877 84.1705Z" fill="#39AD45"/>
<path fill-rule="evenodd" clip-rule="evenodd" d="M325.877 85.7996C330.107 85.7996 333.469 89.2751 333.469 93.4021V96.6603V98.6153V100.787C333.469 101.222 333.035 101.656 332.601 101.656H319.045C318.612 101.656 318.178 101.222 318.178 100.787V98.6153V96.6603V93.4021C318.286 89.2751 321.757 85.7996 325.877 85.7996Z" fill="#39AD45"/>
<path fill-rule="evenodd" clip-rule="evenodd" d="M354.073 84.1705C357.001 84.1705 359.495 81.7812 359.495 78.7402C359.495 75.8078 357.11 73.3098 354.073 73.3098C351.145 73.3098 348.651 75.6992 348.651 78.7402C348.759 81.6726 351.145 84.1705 354.073 84.1705Z" fill="#39AD45"/>
<path fill-rule="evenodd" clip-rule="evenodd" d="M354.073 85.7996C358.303 85.7996 361.664 89.2751 361.664 93.4021V96.6603V98.6153V100.787C361.664 101.222 361.231 101.656 360.797 101.656H347.241C346.807 101.656 346.374 101.222 346.374 100.787V98.6153V96.6603V93.4021C346.482 89.2751 349.952 85.7996 354.073 85.7996Z" fill="#39AD45"/>
<path fill-rule="evenodd" clip-rule="evenodd" d="M339.975 80.5865C343.554 80.5865 346.482 77.6541 346.482 74.0701C346.482 70.486 343.554 67.5536 339.975 67.5536C336.397 67.5536 333.469 70.486 333.469 74.0701C333.577 77.6541 336.505 80.5865 339.975 80.5865Z" fill="white"/>
<path fill-rule="evenodd" clip-rule="evenodd" d="M339.975 82.65C344.964 82.65 349.193 86.7771 349.193 91.8816V95.7915V98.1808V100.787C349.193 101.33 348.759 101.765 348.217 101.765H331.95C331.408 101.765 330.974 101.33 330.974 100.787V98.1808V95.7915V91.8816C330.866 86.7771 334.987 82.65 339.975 82.65Z" fill="white"/>
<path fill-rule="evenodd" clip-rule="evenodd" d="M418.598 219.061C423.695 219.061 428.575 221.124 432.154 224.708C435.732 228.292 437.793 233.179 437.793 238.284C437.793 243.389 435.732 248.276 432.154 251.86C428.575 255.444 423.695 257.507 418.598 257.507C413.501 257.507 408.621 255.444 405.042 251.86C401.464 248.276 399.403 243.389 399.403 238.284C399.403 233.179 401.464 228.292 405.042 224.708C408.621 221.124 413.501 219.061 418.598 219.061ZM435.732 239.261H427.924C427.924 241.325 427.707 243.389 427.274 245.452C429.226 245.886 431.286 246.538 433.021 247.516C434.539 245.126 435.515 242.302 435.732 239.261ZM425.755 239.261H419.574V244.583C421.418 244.583 423.37 244.8 425.213 245.126C425.538 243.171 425.755 241.216 425.755 239.261ZM417.514 239.261H411.332C411.332 241.216 411.549 243.171 411.983 245.126C413.826 244.8 415.67 244.583 417.622 244.583V239.261H417.514ZM409.272 239.261H401.464C401.681 242.194 402.548 245.126 404.175 247.624C405.91 246.647 407.97 245.995 409.922 245.561C409.597 243.497 409.38 241.434 409.272 239.261ZM401.464 237.307H409.272C409.272 235.569 409.489 233.723 409.705 231.985C407.645 231.442 405.476 230.79 403.633 229.704C402.44 231.985 401.572 234.591 401.464 237.307ZM411.766 232.419C411.549 234.048 411.332 235.677 411.332 237.307H417.514V232.962C415.561 232.962 413.718 232.745 411.766 232.419ZM425.322 232.419C423.37 232.745 421.526 232.962 419.574 232.962V237.307H425.755C425.755 235.677 425.647 234.048 425.322 232.419ZM427.816 237.307H435.624C435.515 234.591 434.648 231.985 433.347 229.704C431.503 230.79 429.334 231.55 427.274 231.985C427.599 233.723 427.816 235.46 427.816 237.307ZM419.574 221.341V230.899C421.418 230.899 423.153 230.682 424.996 230.356C424.671 228.835 424.129 227.315 423.478 225.794C422.719 224.274 421.418 221.993 419.574 221.341ZM419.574 246.647V255.227C421.418 254.575 422.719 252.294 423.478 250.665C424.02 249.471 424.454 248.276 424.779 247.081C423.044 246.864 421.309 246.647 419.574 246.647ZM417.514 255.227V246.647C415.778 246.647 414.043 246.864 412.417 247.19C412.742 248.384 413.176 249.579 413.718 250.774C414.369 252.294 415.778 254.575 417.514 255.227ZM417.514 230.899V221.341C415.67 221.993 414.369 224.274 413.609 225.903C412.959 227.315 412.525 228.835 412.091 230.464C413.935 230.681 415.778 230.899 417.514 230.899ZM404.934 227.966C406.561 228.835 408.404 229.487 410.248 230.03C410.681 228.292 411.115 226.663 411.874 225.034C412.417 223.948 412.959 222.862 413.718 221.884C411.007 222.645 408.513 224.165 406.452 226.229C405.91 226.663 405.368 227.315 404.934 227.966ZM426.948 229.921C428.792 229.487 430.635 228.835 432.262 227.858C431.828 227.206 431.286 226.663 430.744 226.011C428.683 223.948 426.189 222.536 423.478 221.667C424.237 222.645 424.888 223.731 425.322 224.817C426.081 226.554 426.623 228.292 426.948 229.921ZM431.72 249.362C430.202 248.602 428.466 247.95 426.731 247.624C426.406 249.036 425.864 250.339 425.322 251.643C424.779 252.729 424.237 253.815 423.478 254.792C426.189 254.032 428.683 252.512 430.744 250.448C431.069 250.014 431.394 249.688 431.72 249.362ZM410.356 247.516C408.621 247.95 406.994 248.493 405.368 249.253C405.693 249.688 406.018 250.014 406.344 250.339C408.404 252.403 410.898 253.815 413.609 254.684C412.85 253.706 412.2 252.62 411.766 251.534C411.224 250.231 410.79 248.927 410.356 247.516Z" fill="white"/>
<path fill-rule="evenodd" clip-rule="evenodd" d="M42.2936 131.197C42.9443 130.003 43.8118 129.025 45.0047 128.374C46.0892 127.722 46.7398 126.744 47.0652 125.55C47.4989 124.138 47.4989 122.4 47.4989 120.88C47.4989 120.337 47.9327 119.794 48.5834 119.794H50.427C50.6439 119.794 50.7523 119.794 50.9692 119.902C51.8367 120.119 52.4874 120.988 52.9212 121.749C53.4634 122.726 53.7888 124.029 53.7888 125.115C53.7888 125.876 53.6803 126.744 53.4634 127.396C53.2465 127.939 52.8128 129.46 53.0296 130.003C53.0296 130.003 53.2465 130.003 53.355 130.003H58.0181C58.5603 130.003 59.1026 130.111 59.5363 130.22C60.2955 130.437 60.9461 130.763 61.3799 131.306C62.0306 131.958 62.2475 132.826 62.2475 133.695C62.2475 134.13 62.139 134.673 62.0306 135.107C62.6813 136.845 62.7897 138.908 61.4884 140.32C61.5968 141.732 61.2715 143.253 59.9701 144.122C59.3195 146.077 57.6928 147.38 55.5239 147.38H47.0652C45.6554 147.38 44.1371 146.62 43.0527 145.751C42.9443 146.185 42.7274 146.511 42.402 146.837C41.9682 147.271 41.426 147.488 40.7753 147.488H36.9798C36.3291 147.488 35.7869 147.271 35.2446 146.837C34.8109 146.402 34.594 145.751 34.594 145.099V132.935C34.594 132.283 34.8109 131.74 35.3531 131.197C35.7869 130.763 36.3291 130.546 36.9798 130.546H40.7753C41.3176 130.654 41.8598 130.872 42.2936 131.197ZM43.2696 143.144C44.2456 144.122 45.8723 145.425 47.2821 145.425H55.7408C56.9337 145.425 58.0181 144.556 58.235 143.361C58.3435 143.036 58.5603 142.818 58.7772 142.601C59.5363 142.167 59.5363 140.972 59.4279 140.212C59.3195 139.777 59.5363 139.343 59.8617 139.126C60.8377 138.365 60.5124 136.736 60.0786 135.759C59.9701 135.542 59.9701 135.216 59.9701 134.999C60.0786 134.564 60.187 134.238 60.187 133.804C60.187 133.478 60.0786 133.044 59.8617 132.826C59.6448 132.609 59.3195 132.501 59.1026 132.392C58.7772 132.283 58.4519 132.283 58.1266 132.283H53.4634C52.4874 132.283 51.6199 131.958 51.1861 130.98C50.7523 129.785 51.1861 128.048 51.5114 126.962C51.7283 126.419 51.7283 125.876 51.7283 125.224C51.7283 124.464 51.5114 123.595 51.1861 122.835C51.0776 122.617 50.7523 122.074 50.427 121.966H49.6678C49.6678 123.378 49.5594 124.79 49.1256 126.201C48.5834 128.048 47.6074 129.46 45.9807 130.329C44.354 131.197 43.4865 133.261 43.1611 134.999V143.144H43.2696ZM40.7753 132.826H36.9798C36.8713 132.826 36.8713 132.826 36.8713 132.826C36.8713 132.826 36.7629 132.935 36.7629 133.044V145.208C36.7629 145.316 36.7629 145.316 36.8713 145.425C36.8713 145.425 36.9798 145.534 37.0882 145.534H40.8838C40.9922 145.534 40.9922 145.534 40.9922 145.534C40.9922 145.534 41.1007 145.425 41.1007 145.316V133.152C41.1007 133.044 41.1007 133.044 40.9922 132.935C40.9922 132.826 40.8838 132.826 40.7753 132.826Z" fill="white"/>
<path fill-rule="evenodd" clip-rule="evenodd" d="M348.326 48.3302H351.579C352.338 48.3302 352.989 47.6785 352.989 46.9183V43.6601C352.989 42.8998 352.338 42.2482 351.579 42.2482H348.326C347.566 42.2482 346.916 42.8998 346.916 43.6601V46.9183C346.916 47.6785 347.566 48.3302 348.326 48.3302Z" fill="white"/>
<path fill-rule="evenodd" clip-rule="evenodd" d="M359.604 48.3302H362.857C363.616 48.3302 364.267 47.6785 364.267 46.9183V43.6601C364.267 42.8998 363.616 42.2482 362.857 42.2482H359.604C358.845 42.2482 358.194 42.8998 358.194 43.6601V46.9183C358.194 47.6785 358.845 48.3302 359.604 48.3302Z" fill="#A6CAE4"/>
<path fill-rule="evenodd" clip-rule="evenodd" d="M370.882 48.3302H374.135C374.895 48.3302 375.545 47.6785 375.545 46.9183V43.6601C375.545 42.8998 374.895 42.2482 374.135 42.2482H370.882C370.123 42.2482 369.472 42.8998 369.472 43.6601V46.9183C369.472 47.6785 370.123 48.3302 370.882 48.3302Z" fill="white"/>
<path fill-rule="evenodd" clip-rule="evenodd" d="M382.16 48.3302H385.414C386.173 48.3302 386.824 47.6785 386.824 46.9183V43.6601C386.824 42.8998 386.173 42.2482 385.414 42.2482H382.16C381.401 42.2482 380.751 42.8998 380.751 43.6601V46.9183C380.751 47.6785 381.401 48.3302 382.16 48.3302Z" fill="#A6CAE4"/>
<path fill-rule="evenodd" clip-rule="evenodd" d="M393.547 48.3302H396.8C397.56 48.3302 398.21 47.6785 398.21 46.9183V43.6601C398.21 42.8998 397.56 42.2482 396.8 42.2482H393.547C392.788 42.2482 392.137 42.8998 392.137 43.6601V46.9183C392.029 47.6785 392.68 48.3302 393.547 48.3302Z" fill="white"/>
<path fill-rule="evenodd" clip-rule="evenodd" d="M404.825 48.3302H408.079C408.838 48.3302 409.489 47.6785 409.489 46.9183V43.6601C409.489 42.8998 408.838 42.2482 408.079 42.2482H404.825C404.066 42.2482 403.416 42.8998 403.416 43.6601V46.9183C403.416 47.6785 404.066 48.3302 404.825 48.3302Z" fill="white"/>
<path fill-rule="evenodd" clip-rule="evenodd" d="M416.104 48.3302H419.357C420.116 48.3302 420.767 47.6785 420.767 46.9183V43.6601C420.767 42.8998 420.116 42.2482 419.357 42.2482H416.104C415.345 42.2482 414.694 42.8998 414.694 43.6601V46.9183C414.694 47.6785 415.345 48.3302 416.104 48.3302Z" fill="white"/>
<path fill-rule="evenodd" clip-rule="evenodd" d="M382.594 36.0576H385.848C386.607 36.0576 387.257 35.4059 387.257 34.6457V31.3875C387.257 30.6272 386.607 29.9756 385.848 29.9756H382.594C381.835 29.9756 381.184 30.6272 381.184 31.3875V34.6457C381.184 35.4059 381.835 36.0576 382.594 36.0576Z" fill="white"/>
<path fill-rule="evenodd" clip-rule="evenodd" d="M393.873 36.0576H397.126C397.885 36.0576 398.536 35.4059 398.536 34.6457V31.3875C398.536 30.6272 397.885 29.9756 397.126 29.9756H393.873C393.113 29.9756 392.463 30.6272 392.463 31.3875V34.6457C392.463 35.4059 393.113 36.0576 393.873 36.0576Z" fill="#A6CAE4"/>
<path fill-rule="evenodd" clip-rule="evenodd" d="M405.259 36.0576H408.513C409.272 36.0576 409.922 35.4059 409.922 34.6457V31.3875C409.922 30.6272 409.272 29.9756 408.513 29.9756H405.259C404.5 29.9756 403.849 30.6272 403.849 31.3875V34.6457C403.741 35.4059 404.392 36.0576 405.259 36.0576Z" fill="white"/>
<path fill-rule="evenodd" clip-rule="evenodd" d="M393.547 61.5802H396.8C397.56 61.5802 398.21 60.9286 398.21 60.1683V56.9101C398.21 56.1499 397.56 55.4982 396.8 55.4982H393.547C392.788 55.4982 392.137 56.1499 392.137 56.9101V60.1683C392.029 60.9286 392.68 61.5802 393.547 61.5802Z" fill="white"/>
<path fill-rule="evenodd" clip-rule="evenodd" d="M404.825 61.5802H408.079C408.838 61.5802 409.489 60.9286 409.489 60.1683V56.9101C409.489 56.1499 408.838 55.4982 408.079 55.4982H404.825C404.066 55.4982 403.416 56.1499 403.416 56.9101V60.1683C403.416 60.9286 404.066 61.5802 404.825 61.5802Z" fill="#A6CAE4"/>
<path fill-rule="evenodd" clip-rule="evenodd" d="M119.29 141.732C122.543 138.474 127.857 138.474 131.11 141.732L131.869 142.493L132.628 141.732C135.882 138.474 141.195 138.474 144.449 141.732C147.702 144.991 147.702 150.312 144.449 153.57L143.69 154.331L131.869 166.169L120.049 154.331L119.29 153.57C116.036 150.312 116.036 144.991 119.29 141.732Z" fill="white"/>
<path fill-rule="evenodd" clip-rule="evenodd" d="M103.24 280.967C94.5641 272.061 88.0574 283.356 89.0334 294.651C89.901 305.403 99.1188 342.112 97.3837 357.535H100.962C109.53 337.768 114.41 292.37 103.24 280.967Z" fill="#00830D"/>
<path fill-rule="evenodd" clip-rule="evenodd" d="M99.661 357.643C108.011 326.364 97.3837 283.247 97.3837 283.03C97.2752 282.813 97.0583 282.596 96.733 282.704C96.5161 282.813 96.2992 283.03 96.4077 283.356C96.4077 283.465 107.144 326.69 98.5766 357.643H99.661Z" fill="#80B9C9"/>
<path fill-rule="evenodd" clip-rule="evenodd" d="M81.876 300.516C72.7666 295.629 70.3808 306.272 73.9595 315.069C76.8875 322.346 90.0094 343.85 94.8894 357.643H99.5526C99.9864 338.528 92.6121 306.272 81.876 300.516Z" fill="white"/>
<path fill-rule="evenodd" clip-rule="evenodd" d="M97.9259 357.643C94.8894 331.795 77.7551 303.774 77.6467 303.665C77.5382 303.448 77.3213 303.448 77.1045 303.557C76.8876 303.665 76.8876 303.883 76.996 304.1C77.1045 304.209 94.1303 332.121 97.0583 357.643H97.9259Z" fill="#B8B8C1"/>
<path fill-rule="evenodd" clip-rule="evenodd" d="M120.591 312.788C129.483 308.879 130.893 318.979 126.881 326.907C124.17 332.229 114.626 346.022 108.12 357.643H100.745C103.24 339.94 111.373 316.807 120.591 312.788Z" fill="#006A0B"/>
<path fill-rule="evenodd" clip-rule="evenodd" d="M103.348 357.643C109.638 336.248 124.17 316.047 124.17 316.047C124.278 315.829 124.495 315.829 124.712 315.938C124.929 316.047 124.929 316.264 124.82 316.481C124.712 316.59 110.397 336.465 104.107 357.643H103.348Z" fill="#51A5A5"/>
<path fill-rule="evenodd" clip-rule="evenodd" d="M85.2378 349.28H115.928C116.795 349.28 117.554 350.041 117.554 350.91V358.512C117.554 359.381 116.795 360.141 115.928 360.141H85.2378C84.3703 360.141 83.6112 359.381 83.6112 358.512V350.91C83.6112 350.041 84.3703 349.28 85.2378 349.28Z" fill="#2F365C"/>
<path fill-rule="evenodd" clip-rule="evenodd" d="M90.5516 355.471H110.722L115.928 360.141L111.698 376.758H100.637H89.5756L85.2378 360.141L90.5516 355.471Z" fill="#2F365C"/>
<path fill-rule="evenodd" clip-rule="evenodd" d="M115.928 360.141L115.06 363.617H86.2138L85.2378 360.141H115.928Z" fill="#121C39"/>
<path d="M261.895 45.1806C263.452 45.1806 264.714 43.9163 264.714 42.3568C264.714 40.7973 263.452 39.533 261.895 39.533C260.338 39.533 259.075 40.7973 259.075 42.3568C259.075 43.9163 260.338 45.1806 261.895 45.1806Z" fill="#A6CAE4"/>
<path d="M308.309 208.743C309.867 208.743 311.129 207.479 311.129 205.919C311.129 204.36 309.867 203.095 308.309 203.095C306.752 203.095 305.49 204.36 305.49 205.919C305.49 207.479 306.752 208.743 308.309 208.743Z" fill="#A6CAE4"/>
<path d="M366.111 327.776C367.668 327.776 368.93 326.512 368.93 324.953C368.93 323.393 367.668 322.129 366.111 322.129C364.553 322.129 363.291 323.393 363.291 324.953C363.291 326.512 364.553 327.776 366.111 327.776Z" fill="#A6CAE4"/>
<path d="M33.8349 304.969C35.3921 304.969 36.6544 303.705 36.6544 302.145C36.6544 300.586 35.3921 299.321 33.8349 299.321C32.2777 299.321 31.0153 300.586 31.0153 302.145C31.0153 303.705 32.2777 304.969 33.8349 304.969Z" fill="#A6CAE4"/>
<path fill-rule="evenodd" clip-rule="evenodd" d="M375.871 132.066C377.389 132.066 378.69 130.763 378.69 129.242C378.69 127.722 377.389 126.419 375.871 126.419C374.352 126.419 373.051 127.722 373.051 129.242C373.051 130.763 374.352 132.066 375.871 132.066Z" fill="#A6CAE4"/>
<path d="M119.29 113.277C120.847 113.277 122.109 112.013 122.109 110.453C122.109 108.894 120.847 107.63 119.29 107.63C117.732 107.63 116.47 108.894 116.47 110.453C116.47 112.013 117.732 113.277 119.29 113.277Z" fill="#A6CAE4"/>
<path d="M112.349 277.274C113.906 277.274 115.169 276.01 115.169 274.45C115.169 272.891 113.906 271.626 112.349 271.626C110.792 271.626 109.53 272.891 109.53 274.45C109.53 276.01 110.792 277.274 112.349 277.274Z" fill="white"/>
<path d="M384.872 262.938C386.429 262.938 387.691 261.674 387.691 260.114C387.691 258.555 386.429 257.29 384.872 257.29C383.314 257.29 382.052 258.555 382.052 260.114C382.052 261.674 383.314 262.938 384.872 262.938Z" fill="white"/>
<path fill-rule="evenodd" clip-rule="evenodd" d="M327.829 142.275C329.348 142.275 330.649 140.972 330.649 139.452C330.649 137.931 329.348 136.628 327.829 136.628C326.311 136.628 325.01 137.931 325.01 139.452C325.01 140.972 326.311 142.275 327.829 142.275Z" fill="white"/>
<path d="M304.622 36.6006C306.179 36.6006 307.442 35.3363 307.442 33.7768C307.442 32.2173 306.179 30.953 304.622 30.953C303.065 30.953 301.803 32.2173 301.803 33.7768C301.803 35.3363 303.065 36.6006 304.622 36.6006Z" fill="white"/>
<path d="M419.466 108.39C421.023 108.39 422.285 107.126 422.285 105.566C422.285 104.007 421.023 102.742 419.466 102.742C417.908 102.742 416.646 104.007 416.646 105.566C416.646 107.126 417.908 108.39 419.466 108.39Z" fill="white"/>
<path fill-rule="evenodd" clip-rule="evenodd" d="M374.027 349.28C376.521 349.28 378.907 350.258 380.642 351.996C382.377 353.733 383.353 356.123 383.353 358.621C383.353 361.119 382.377 363.508 380.642 365.246C378.907 366.983 376.521 367.961 374.027 367.961C371.533 367.961 369.147 366.983 367.412 365.246C365.677 363.508 364.701 361.119 364.701 358.621C364.701 356.123 365.677 353.733 367.412 351.996C369.147 350.258 371.533 349.28 374.027 349.28ZM378.04 354.602C376.955 353.516 375.545 352.973 374.027 352.973C372.509 352.973 371.099 353.516 370.015 354.602C368.93 355.688 368.388 357.1 368.388 358.621C368.388 360.141 368.93 361.553 370.015 362.639C371.099 363.725 372.509 364.268 374.027 364.268C375.545 364.268 376.955 363.725 378.04 362.639C379.124 361.553 379.666 360.141 379.666 358.621C379.666 357.1 379.016 355.688 378.04 354.602Z" fill="#007D0D"/>
<path fill-rule="evenodd" clip-rule="evenodd" d="M359.17 376.867C367.195 376.867 373.81 370.242 373.81 362.205V361.336V347.977V346.891C373.81 346.131 373.268 345.588 372.509 345.588H345.831C345.072 345.588 344.53 346.131 344.53 346.891V347.977V361.336V362.205C344.53 370.35 351.145 376.867 359.17 376.867Z" fill="#009C10"/>
<path fill-rule="evenodd" clip-rule="evenodd" d="M368.713 360.467C368.713 361.988 368.496 363.508 367.954 364.92C367.737 365.68 367.412 366.44 366.978 367.201C365.351 370.242 362.749 372.631 359.604 373.934C357.869 374.695 356.025 375.02 353.965 375.02C353.097 375.02 352.338 374.912 351.579 374.803C353.748 376.106 356.242 376.867 358.953 376.867C362.207 376.867 365.243 375.781 367.737 373.934C369.364 372.74 370.665 371.219 371.641 369.481C372.075 368.721 372.4 368.07 372.726 367.309C373.268 365.789 373.593 364.051 373.593 362.313V361.444V352.973V350.692V348.086V347C373.593 346.239 373.051 345.696 372.292 345.696H368.713V346.239V351.778V354.602V359.598V360.467Z" fill="#007D0D"/>
<path fill-rule="evenodd" clip-rule="evenodd" d="M346.482 376.867H371.858C372.943 376.867 373.81 375.998 373.81 374.912C373.81 373.826 372.943 372.957 371.858 372.957H346.482C345.398 372.957 344.53 373.826 344.53 374.912C344.53 375.998 345.398 376.867 346.482 376.867Z" fill="#005A09"/>
<path fill-rule="evenodd" clip-rule="evenodd" d="M349.193 348.52C350.603 348.52 351.687 349.606 351.687 351.018V359.815C351.687 361.119 350.603 362.313 349.193 362.313C347.892 362.313 346.699 361.227 346.699 359.815V351.018C346.699 349.606 347.892 348.52 349.193 348.52Z" fill="#39AD45"/>
<path fill-rule="evenodd" clip-rule="evenodd" d="M346.699 327.668H357.869C358.736 327.668 359.387 327.016 359.387 326.147C359.387 325.278 358.736 324.627 357.869 324.627H342.903C340.734 324.627 338.891 322.78 338.891 320.608C338.891 318.436 340.734 316.59 342.903 316.59H381.835C384.004 316.59 385.848 318.436 385.848 320.608C385.848 322.78 384.004 324.627 381.835 324.627H368.279C367.412 324.627 366.761 325.278 366.761 326.147C366.761 327.016 367.412 327.668 368.279 327.668H373.485C375.22 327.668 376.63 329.08 376.63 330.817C376.63 332.555 375.22 333.967 373.485 333.967H364.809C361.447 333.967 358.628 336.791 358.628 340.158V342.981C358.628 343.742 357.977 344.393 357.218 344.393C356.459 344.393 355.808 343.742 355.808 342.981V337.551C355.808 335.596 354.182 333.967 352.23 333.967H346.807C345.072 333.967 343.662 332.555 343.662 330.817C343.554 329.08 344.964 327.668 346.699 327.668Z" fill="white"/>
</svg>
