<svg width="599" height="403" viewBox="0 0 599 403" fill="none" xmlns="http://www.w3.org/2000/svg">
<path fill-rule="evenodd" clip-rule="evenodd" d="M84.745 0C39.4803 0 2.47894 37.0458 2.47894 82.365C2.47894 127.684 39.4803 164.73 84.745 164.73C93.8347 164.73 101.272 172.176 101.272 181.276C101.272 190.377 93.8347 197.823 84.745 197.823H41.6839C19.6483 197.823 1.56079 215.932 1.56079 237.994C1.56079 260.056 19.6483 278.166 41.6839 278.166C60.7814 278.166 76.3899 293.793 76.3899 312.913C76.3899 347.845 104.852 376.342 139.742 376.342H158.656H437.681H511.592C556.857 376.342 593.858 339.296 593.858 293.977C593.858 248.658 556.857 211.612 511.592 211.612H503.604C494.515 211.612 487.078 204.166 487.078 195.065C487.078 185.965 494.515 178.519 503.604 178.519H557.316C579.352 178.519 597.439 160.409 597.439 138.347C597.439 116.285 579.443 98.1761 557.408 98.1761C557.408 98.1761 514.347 98.1761 514.255 98.1761C495.157 98.1761 479.549 82.5488 479.549 63.4284C479.549 28.5887 451.086 0 416.197 0C354.313 0 146.536 0 84.745 0Z" fill="#C6E3F1"/>
<path fill-rule="evenodd" clip-rule="evenodd" d="M410.229 46.3303C415.095 41.4583 421.43 39.0682 427.765 39.0682C434.101 39.0682 440.436 41.4583 445.302 46.3303C450.168 51.2023 452.555 57.5452 452.555 63.888C452.555 70.2309 450.168 76.5737 445.302 81.4457C440.436 86.3178 434.101 88.7078 427.765 88.7078C421.43 88.7078 415.095 86.3178 410.229 81.4457C405.363 76.5737 402.975 70.2309 402.975 63.888C402.975 57.4533 405.363 51.1104 410.229 46.3303ZM427.765 42.5614C422.348 42.5614 416.931 44.6756 412.8 48.8123C408.668 52.9489 406.556 58.3725 406.556 63.7961C406.556 69.2197 408.668 74.6433 412.8 78.7799C416.931 82.9165 422.348 85.0308 427.765 85.0308C433.182 85.0308 438.599 82.9165 442.731 78.7799C446.863 74.6433 448.975 69.2197 448.975 63.7961C448.975 58.3725 446.863 52.9489 442.731 48.8123C438.599 44.6756 433.182 42.5614 427.765 42.5614Z" fill="#484D9B"/>
<path fill-rule="evenodd" clip-rule="evenodd" d="M442.731 81.3538C441.997 80.6184 441.997 79.5153 442.731 78.8718C443.466 78.1364 444.567 78.1364 445.21 78.8718L451.086 84.755C451.821 85.4904 451.821 86.5935 451.086 87.237C450.352 87.9724 449.25 87.9724 448.607 87.237L442.731 81.3538Z" fill="#484D9B"/>
<path fill-rule="evenodd" clip-rule="evenodd" d="M448.791 89.9948C447.414 88.6159 447.414 86.3178 448.791 84.9389C450.168 83.56 452.464 83.56 453.841 84.9389L480.834 111.965C482.212 113.344 482.212 115.642 480.834 117.021C479.457 118.4 477.162 118.4 475.785 117.021L448.791 89.9948Z" fill="#484D9B"/>
<path fill-rule="evenodd" clip-rule="evenodd" d="M439.242 52.2135C438.783 51.7539 438.783 51.1104 439.242 50.6508C439.701 50.1912 440.344 50.1912 440.803 50.6508C442.548 52.3974 443.925 54.5117 444.843 56.6259C445.761 58.9241 446.22 61.3141 446.22 63.7042C446.22 65.4508 445.945 67.1973 445.486 68.852C445.302 69.4035 444.751 69.7712 444.108 69.5874C443.558 69.4035 443.19 68.852 443.374 68.2085C443.833 66.7377 444.017 65.175 444.017 63.7042C444.017 61.5899 443.558 59.4756 442.731 57.4533C441.997 55.6148 440.803 53.7763 439.242 52.2135ZM441.446 72.6209C441.813 72.0694 442.456 71.9774 443.007 72.2532C443.557 72.6209 443.649 73.2644 443.374 73.8159C443.007 74.3675 442.639 74.919 442.18 75.4706C441.721 76.0221 441.354 76.4818 440.803 76.9414C440.344 77.401 439.701 77.401 439.242 76.9414C438.783 76.4818 438.783 75.8383 439.242 75.3787C439.701 74.919 440.069 74.5513 440.436 74.0917C440.803 73.6321 441.17 73.0805 441.446 72.6209ZM416.105 75.3787C416.564 75.8383 416.564 76.4818 416.105 76.9414C415.646 77.401 415.003 77.401 414.544 76.9414C412.8 75.1948 411.422 73.0805 410.504 70.8743C409.586 68.5762 409.127 66.1862 409.127 63.7961C409.127 62.693 409.219 61.498 409.402 60.3949C409.586 59.2918 409.953 58.1887 410.321 57.0856C410.504 56.534 411.147 56.2582 411.698 56.4421C412.249 56.6259 412.524 57.2694 412.34 57.821C411.973 58.7402 411.698 59.7514 411.514 60.6706C411.331 61.6818 411.239 62.693 411.239 63.7042C411.239 65.8185 411.698 67.9327 412.524 69.9551C413.35 71.9774 414.544 73.8159 416.105 75.3787ZM414.452 54.2359C414.085 54.6955 413.442 54.8794 412.891 54.5117C412.432 54.144 412.249 53.5005 412.616 52.9489C412.891 52.5812 413.259 52.1216 413.534 51.7539L413.626 51.662C413.993 51.2943 414.269 50.9266 414.544 50.6508C415.003 50.1912 415.646 50.1912 416.105 50.6508C416.564 51.1104 416.564 51.7539 416.105 52.2135C415.738 52.5812 415.462 52.857 415.279 53.1328L415.187 53.2247C414.911 53.5005 414.636 53.8682 414.452 54.2359Z" fill="white"/>
<path fill-rule="evenodd" clip-rule="evenodd" d="M433.091 71.242C432.54 71.5178 432.448 72.1613 432.723 72.7128C432.999 73.2644 433.641 73.3563 434.192 73.0805C435.845 72.1613 437.13 70.7824 438.14 69.1277C439.059 67.565 439.609 65.7265 439.609 63.7961C439.609 60.8545 438.416 58.1886 436.488 56.1663C434.56 54.2359 431.897 53.0408 428.959 53.0408C426.021 53.0408 423.358 54.2359 421.43 56.1663C419.502 58.0967 418.308 60.7626 418.308 63.7961C418.308 64.3476 418.767 64.8992 419.41 64.8992C419.961 64.8992 420.512 64.4396 420.512 63.7961C420.512 61.406 421.43 59.2917 422.991 57.729C424.552 56.1663 426.663 55.247 429.051 55.247C431.438 55.247 433.55 56.1663 435.11 57.729C436.671 59.2917 437.589 61.406 437.589 63.7961C437.589 65.3588 437.13 66.8296 436.488 68.1166C435.478 69.4035 434.376 70.5066 433.091 71.242Z" fill="#9C9DCC"/>
<path fill-rule="evenodd" clip-rule="evenodd" d="M513.796 257.115C519.58 257.115 525.181 258.31 530.231 260.332C535.464 262.538 540.239 265.664 544.187 269.617C548.135 273.569 551.348 278.258 553.46 283.589C555.572 288.645 556.673 294.161 556.673 300.044C556.673 305.835 555.48 311.443 553.46 316.498C551.256 321.738 548.135 326.518 544.187 330.471C540.239 334.424 535.556 337.641 530.231 339.756C525.181 341.87 519.672 342.973 513.796 342.973C508.011 342.973 502.411 341.778 497.361 339.756C492.128 337.549 487.353 334.424 483.405 330.471C479.457 326.518 476.244 321.83 474.132 316.498C472.02 311.443 470.918 305.927 470.918 300.044C470.918 294.253 472.112 288.645 474.132 283.589C476.335 278.349 479.457 273.569 483.405 269.617C487.353 265.664 492.036 262.446 497.361 260.332C502.503 258.218 508.011 257.115 513.796 257.115ZM529.588 261.803C524.722 259.781 519.397 258.677 513.796 258.677C508.195 258.677 502.87 259.781 498.004 261.803C492.954 263.917 488.455 266.951 484.599 270.812C480.834 274.581 477.713 279.177 475.601 284.233C473.581 289.105 472.479 294.436 472.479 300.044C472.479 305.651 473.581 310.983 475.601 315.855C477.713 320.911 480.742 325.415 484.599 329.276C488.363 333.045 492.954 336.17 498.004 338.285C502.87 340.307 508.195 341.41 513.796 341.41C519.397 341.41 524.722 340.307 529.588 338.285C534.638 336.17 539.137 333.137 542.993 329.276C546.757 325.507 549.879 320.911 551.991 315.855C554.011 310.983 555.113 305.651 555.113 300.044C555.113 294.436 554.011 289.105 551.991 284.233C549.879 279.177 546.849 274.672 542.993 270.812C539.137 267.043 534.638 263.917 529.588 261.803Z" fill="#9C9DCC"/>
<path fill-rule="evenodd" clip-rule="evenodd" d="M392.968 112.884C392.968 112.884 414.452 75.8383 423.175 62.0495C427.031 55.9825 432.815 57.729 429.234 65.7265C427.306 70.1389 420.328 81.17 420.328 81.17C430.061 82.0892 433.274 93.9476 430.612 98.7277C429.326 101.118 421.43 107.828 419.502 109.115C417.574 110.31 409.494 120.79 409.494 120.79L392.968 112.884Z" fill="#F4AD85"/>
<path fill-rule="evenodd" clip-rule="evenodd" d="M408.852 85.7662C411.055 81.9973 413.35 78.2283 415.462 74.6433C416.197 74.7352 416.931 74.8271 417.758 74.919C421.247 75.2867 423.817 74.1836 425.654 72.4371C423.083 76.8495 420.328 81.2619 420.328 81.2619C421.889 81.4457 423.175 81.8134 424.46 82.4569C422.165 83.6519 418.033 84.9389 411.147 85.7662C410.229 85.7662 409.494 85.7662 408.852 85.7662Z" fill="#EF8871"/>
<path fill-rule="evenodd" clip-rule="evenodd" d="M405.546 91.3736C407.107 88.7997 408.668 86.1339 410.229 83.4681C413.442 82.6408 417.298 81.8134 420.879 81.2619C430.152 82.6408 433.182 94.0395 430.611 98.7277C429.785 100.198 426.48 103.324 423.634 105.806C415.737 103.6 409.31 96.5215 405.546 91.3736Z" fill="#EF8871"/>
<path fill-rule="evenodd" clip-rule="evenodd" d="M428.684 88.3401C432.54 90.5463 435.111 92.5687 432.632 97.7165C430.153 102.772 424.644 102.405 424.736 100.474C424.827 98.5438 429.326 91.6494 429.326 91.6494C429.326 91.6494 423.542 87.6966 428.684 88.3401Z" fill="#F4AD85"/>
<path fill-rule="evenodd" clip-rule="evenodd" d="M425.47 85.1227C431.53 83.9277 431.713 88.6159 428.959 94.3153C426.205 100.015 421.889 100.474 420.237 97.9923C418.584 95.5103 425.195 88.7078 425.195 88.7078C425.195 88.7078 419.686 84.4793 425.47 85.1227Z" fill="#F4AD85"/>
<path fill-rule="evenodd" clip-rule="evenodd" d="M425.746 89.4432C422.991 95.1426 419.043 95.2345 417.39 92.7525C415.738 90.2705 422.348 83.4681 422.348 83.4681C422.348 83.4681 420.512 81.7215 420.879 80.6184C421.797 77.8606 427.857 77.6768 428.133 82.8246C428.041 84.2954 427.123 86.5935 425.746 89.4432Z" fill="#F4AD85"/>
<path fill-rule="evenodd" clip-rule="evenodd" d="M399.211 105.162C395.263 94.7749 399.395 79.9749 403.802 80.2507C408.209 80.6184 422.44 79.1476 422.991 83.0085C423.45 86.8693 408.301 89.2594 408.301 89.2594C408.301 89.2594 418.676 101.485 412.249 104.887C405.822 108.38 399.027 108.564 399.211 105.162Z" fill="#F4AD85"/>
<path fill-rule="evenodd" clip-rule="evenodd" d="M278.199 177.967C278.199 177.967 335.4 173.922 337.97 173.555C340.541 173.187 342.561 172.452 348.162 166.109C353.763 159.858 394.896 103.416 394.896 103.416C396.273 101.21 419.41 115.918 415.829 124.559C414.085 128.787 370.565 195.525 370.565 195.525C370.565 195.525 362.118 210.601 348.254 216.484C334.481 222.367 302.346 238.27 302.346 238.27L278.199 177.967Z" fill="#1D135C"/>
<path fill-rule="evenodd" clip-rule="evenodd" d="M318.23 175.026C321.995 174.75 325.484 174.474 328.422 174.29C341.184 181.185 355.323 194.789 343.02 218.782C340.633 219.885 338.062 221.08 335.308 222.367C354.405 193.043 330.442 179.714 318.23 175.026ZM332.002 174.014C344.306 179.99 360.281 193.043 344.856 218.047C346.142 217.495 347.335 216.943 348.437 216.484C349.814 215.932 351.1 215.197 352.385 214.461C362.669 193.135 351.834 180.173 340.358 172.911C339.623 173.187 338.889 173.371 338.062 173.463C337.603 173.647 335.308 173.739 332.002 174.014Z" fill="#484D9B"/>
<path fill-rule="evenodd" clip-rule="evenodd" d="M279.301 178.611C328.789 187.252 329.707 244.521 322.362 293.793C320.801 318.153 323.556 355.567 320.893 365.954C320.617 366.873 319.791 368.344 318.781 369.723L261.305 371.562H196.943C195.933 370.091 195.107 368.712 194.831 367.793C192.168 357.405 197.677 303.721 196.116 279.269L191.526 197.455L243.309 178.611H279.301Z" fill="#1D135C"/>
<path fill-rule="evenodd" clip-rule="evenodd" d="M297.572 120.882C297.847 120.882 298.123 120.974 298.398 120.974C303.356 121.985 307.121 126.305 307.212 131.637C307.304 137.796 302.438 142.76 296.378 142.944C290.227 143.036 285.269 138.164 285.085 132.096C284.993 128.511 286.646 125.386 289.217 123.272C288.941 126.581 289.492 130.626 293.624 130.993L293.532 124.651C293.44 121.985 295.827 120.79 297.572 120.882Z" fill="#EF8871"/>
<path fill-rule="evenodd" clip-rule="evenodd" d="M222.192 120.882C221.916 120.882 221.641 120.974 221.366 120.974C216.408 121.985 212.643 126.305 212.551 131.637C212.46 137.796 217.326 142.76 223.386 142.944C229.537 143.036 234.495 138.164 234.679 132.096C234.771 128.511 233.118 125.386 230.547 123.272C230.823 126.581 230.272 130.626 226.14 130.993L226.232 124.651C226.415 121.985 224.028 120.79 222.192 120.882Z" fill="#EF8871"/>
<path fill-rule="evenodd" clip-rule="evenodd" d="M303.632 94.4072L300.051 127.408L292.522 96.2457L303.632 94.4072Z" fill="#100843"/>
<path fill-rule="evenodd" clip-rule="evenodd" d="M279.301 177.875C281.596 177.691 282.422 177.508 284.259 177.508C289.217 194.789 279.484 207.475 261.305 207.475C247.808 207.475 236.882 196.444 236.882 183.023V181.093L243.401 178.703L279.301 177.875Z" fill="#9C9DCC"/>
<path fill-rule="evenodd" clip-rule="evenodd" d="M377.634 380.386H250.104C245.329 380.386 241.381 376.434 241.381 371.653C241.381 366.873 245.329 362.921 250.104 362.921H377.634C382.409 362.921 386.357 366.873 386.357 371.653C386.357 376.434 382.409 380.386 377.634 380.386Z" fill="#606CE6"/>
<path fill-rule="evenodd" clip-rule="evenodd" d="M250.471 380.386H193.087C188.312 380.386 184.364 376.434 184.364 371.653C184.364 366.873 188.312 362.921 193.087 362.921H250.471C255.245 362.921 259.193 366.873 259.193 371.653C259.285 376.434 255.337 380.386 250.471 380.386Z" fill="#484D9B"/>
<path fill-rule="evenodd" clip-rule="evenodd" d="M261.397 141.289C251.573 141.289 243.493 149.378 243.493 159.214V182.931C243.493 192.767 251.573 200.857 261.397 200.857C271.221 200.857 279.301 192.767 279.301 182.931V159.214C279.301 149.378 271.313 141.289 261.397 141.289Z" fill="#EF8871"/>
<path fill-rule="evenodd" clip-rule="evenodd" d="M243.493 157.652C243.493 158.203 243.401 158.663 243.401 159.214V182.931C243.401 185.137 243.768 187.252 244.503 189.182L279.209 173.647V160.318C272.782 159.122 257.265 157.56 256.439 156.824C255.98 156.365 249.553 156.916 243.493 157.652Z" fill="#EF8871"/>
<path fill-rule="evenodd" clip-rule="evenodd" d="M299.959 102.864C299.959 103.048 299.959 103.232 299.959 103.508V114.631V138.072C299.959 158.939 282.882 175.945 262.04 175.945C241.198 175.945 224.212 158.847 224.212 138.072V133.016V114.723V103.6C224.212 99.9227 224.487 97.4407 225.314 94.4991C229.445 77.9526 244.411 65.6346 262.04 65.6346C282.79 65.5427 299.684 82.273 299.959 102.864Z" fill="#F4AD85"/>
<path fill-rule="evenodd" clip-rule="evenodd" d="M252.188 69.3132C271.275 66.8152 289.168 79.5222 293.181 98.0941C292.964 99.8318 292.422 101.678 291.446 103.524L234 99C234 99 238.006 89 234 95C227.819 96.4119 228.307 138.496 229.5 144.469C232.645 159.023 248.501 178.355 279.191 172.056C275.287 174.228 270.949 175.748 266.286 176.291C246.115 179.006 227.354 164.67 224.752 144.469L220.306 111.018C217.703 90.7088 232.018 72.0283 252.188 69.3132Z" fill="#EF8871"/>
<path fill-rule="evenodd" clip-rule="evenodd" d="M299.959 102.864V103.232L276.914 93.8556L267.089 99.6469L254.327 96.1537C253.042 98.268 250.746 97.8084 250.746 97.8084L237.341 92.9364L238.994 73.5401C240.922 72.0693 243.034 70.6905 245.237 69.5874L285.544 73.724C294.175 80.5265 299.775 91.0979 299.959 102.864Z" fill="#EF8871"/>
<path fill-rule="evenodd" clip-rule="evenodd" d="M257.541 139.91C257.357 145.334 261.58 149.93 266.906 150.114C272.323 150.297 276.914 146.069 277.097 140.737C277.097 139.818 276.363 138.991 275.445 138.991L259.285 138.347C258.367 138.255 257.541 138.991 257.541 139.91Z" fill="#100843"/>
<path fill-rule="evenodd" clip-rule="evenodd" d="M260.846 147.632C262.499 149.011 264.61 149.93 266.906 150.022C268.834 150.114 270.578 149.654 272.139 148.735C271.496 146.713 269.293 145.058 266.722 144.874C264.151 144.782 261.948 145.885 260.846 147.632Z" fill="#CF4A60"/>
<path fill-rule="evenodd" clip-rule="evenodd" d="M275.72 138.899L260.479 138.255C260.203 139.91 260.846 141.657 262.04 142.116C263.417 142.576 274.435 142.76 275.261 141.932C275.536 141.565 275.72 140.186 275.72 138.899Z" fill="white"/>
<path fill-rule="evenodd" clip-rule="evenodd" d="M246.247 131.453C249.002 131.361 251.297 133.567 251.297 136.325C251.389 139.083 249.185 141.381 246.431 141.381C243.677 141.473 241.381 139.267 241.381 136.509C241.289 133.751 243.493 131.545 246.247 131.453Z" fill="#EF8871"/>
<path fill-rule="evenodd" clip-rule="evenodd" d="M287.564 130.626C290.318 130.534 292.614 132.74 292.614 135.498C292.706 138.255 290.502 140.554 287.748 140.554C284.993 140.646 282.698 138.439 282.698 135.682C282.606 132.924 284.81 130.718 287.564 130.626Z" fill="#EF8871"/>
<path fill-rule="evenodd" clip-rule="evenodd" d="M289.676 114.263C290.318 114.631 291.145 114.355 291.512 113.62C291.879 112.976 291.604 112.149 290.869 111.781C287.289 109.943 282.514 109.759 279.025 111.873C278.383 112.241 278.199 113.068 278.566 113.711C278.933 114.355 279.76 114.539 280.402 114.171C283.249 112.516 286.829 112.884 289.676 114.263Z" fill="#100843"/>
<path fill-rule="evenodd" clip-rule="evenodd" d="M272.323 128.42C273.241 129.706 274.894 132.005 274.985 132.924C275.169 134.119 272.415 134.854 270.578 134.303C269.293 133.935 269.477 130.993 269.844 129.063C270.303 126.949 270.946 126.397 272.323 128.42Z" fill="#E7B7B9"/>
<path fill-rule="evenodd" clip-rule="evenodd" d="M254.419 114.263C255.062 114.631 255.888 114.355 256.255 113.62C256.623 112.976 256.347 112.149 255.704 111.781C252.124 109.943 247.349 109.759 243.86 111.873C243.218 112.241 243.034 113.068 243.401 113.711C243.768 114.355 244.595 114.539 245.237 114.171C247.992 112.516 251.573 112.884 254.419 114.263Z" fill="#100843"/>
<path fill-rule="evenodd" clip-rule="evenodd" d="M248.63 117.026C246.895 117.243 245.811 118.872 246.027 120.61L246.678 124.628C246.895 126.257 248.522 127.452 250.257 127.235C251.884 127.017 253.076 125.388 252.86 123.651L252.209 119.632C251.884 118.003 250.365 116.808 248.63 117.026Z" fill="#100843"/>
<path fill-rule="evenodd" clip-rule="evenodd" d="M283.63 117.026C281.895 117.243 280.811 118.872 281.027 120.61L281.678 124.628C281.895 126.257 283.522 127.452 285.257 127.235C286.884 127.017 288.076 125.388 287.86 123.651L287.209 119.632C286.884 118.003 285.365 116.808 283.63 117.026Z" fill="#100843"/>
<path fill-rule="evenodd" clip-rule="evenodd" d="M224.304 132.924C224.304 132.924 232.751 123.364 228.711 110.586C228.711 110.586 243.401 102.589 243.401 90.4544C243.401 90.4544 245.146 94.6829 248.084 95.6941C250.93 96.7053 252.491 92.8444 251.022 91.0059C251.022 91.0059 261.764 98.8196 270.578 100.566C279.393 102.313 282.055 93.396 278.383 90.1786C278.383 90.1786 292.614 100.107 301.704 97.7165C310.793 95.3264 316.21 59.6595 284.993 51.8458C253.684 44.0322 234.036 52.2135 227.334 56.7178C220.631 61.2222 216.316 73.2644 220.998 81.5376C220.998 81.5376 215.398 86.9612 213.929 94.7749C212.46 102.589 218.336 122.169 218.336 122.169C218.336 122.169 224.304 122.812 224.304 132.924Z" fill="#100843"/>
<path fill-rule="evenodd" clip-rule="evenodd" d="M304.274 65.175C265.988 78.2283 246.523 63.1526 237.892 51.8458C235.138 52.7651 232.842 53.6843 230.914 54.6036C251.848 88.8917 286.003 88.1563 308.681 82.8246C308.957 77.2172 307.763 70.7824 304.274 65.175Z" fill="#1D135C"/>
<path fill-rule="evenodd" clip-rule="evenodd" d="M237.158 242.774C238.535 244.705 239.912 246.543 241.473 248.014C243.126 249.485 257.724 254.725 257.724 254.725C257.724 254.725 256.714 258.034 253.409 258.034C250.195 258.034 247.808 258.034 244.962 258.034C242.208 258.034 240.096 267.043 230.088 270.995C222.467 274.029 225.497 252.978 227.425 242.682H237.158V242.774Z" fill="#EF8871"/>
<path fill-rule="evenodd" clip-rule="evenodd" d="M268.283 192.216H244.136C242.208 192.216 240.647 193.778 240.647 195.709V251.691C240.647 253.622 242.208 255.184 244.136 255.184H268.283C270.211 255.184 271.772 253.622 271.772 251.691V195.709C271.772 193.778 270.211 192.216 268.283 192.216Z" fill="white"/>
<path d="M271.68 199.11H240.647V200.305H271.68V199.11Z" fill="#D6D6F9"/>
<path d="M271.68 247.095H240.647V248.29H271.68V247.095Z" fill="#D6D6F9"/>
<path fill-rule="evenodd" clip-rule="evenodd" d="M239.729 210.141C239.729 210.141 241.014 211.152 241.106 213.634C241.289 216.116 239.545 218.598 238.902 220.253L236.515 228.526C236.515 228.526 235.322 240.109 235.138 240.476C235.046 240.66 235.964 241.947 237.25 243.418L227.609 244.337C227.884 241.028 228.16 238.822 228.16 238.822L227.058 232.938C227.058 232.938 230.272 224.022 231.557 221.172C232.842 218.414 239.178 209.589 239.729 210.141Z" fill="#EF8871"/>
<path fill-rule="evenodd" clip-rule="evenodd" d="M256.255 213.634C259.102 213.634 261.489 211.336 261.489 208.394C261.489 205.545 259.193 203.155 256.255 203.155C253.409 203.155 251.022 205.453 251.022 208.394C251.022 211.336 253.317 213.634 256.255 213.634Z" fill="#D6D6F9"/>
<path fill-rule="evenodd" clip-rule="evenodd" d="M219.713 293.241C219.713 293.241 226.415 281.015 228.252 278.441C230.088 275.867 232.567 271.271 232.567 264.928C232.567 258.586 231.557 255.46 234.22 253.438C236.882 251.415 240.647 250.404 240.647 250.404C240.647 250.404 246.156 250.588 247.257 250.68C248.359 250.772 253.409 252.151 254.603 252.059C255.796 251.967 256.898 251.048 257.173 250.22C257.357 249.485 257.357 248.933 255.613 248.29C253.868 247.646 249.186 245.992 247.533 245.716C245.88 245.44 240.463 245.164 239.178 245.164C237.892 245.164 234.587 245.992 234.587 245.992C234.587 245.992 238.076 244.337 238.902 243.969C239.729 243.602 245.972 243.142 247.808 243.418C249.553 243.694 255.062 246.727 258.734 244.521C258.734 244.521 259.561 243.878 258.551 242.866C257.541 241.855 247.808 237.535 246.523 236.983C245.237 236.523 243.768 236.615 241.198 236.799C238.627 236.983 236.056 237.075 234.862 237.81C233.669 238.546 231.649 239.649 231.649 239.649C231.649 239.649 235.23 232.846 235.689 232.387C236.148 231.927 243.493 228.802 243.952 228.618C244.411 228.434 249.461 227.699 250.838 226.596C252.215 225.492 252.583 223.746 252.583 223.102C252.583 222.459 252.399 222.091 249.736 222.275C247.074 222.551 244.044 222.827 241.932 223.01C239.82 223.286 234.954 225.492 232.567 226.412C230.088 227.331 228.068 231.1 225.405 235.88C222.743 240.66 218.978 250.864 217.326 254.817C215.581 258.769 216.775 270.26 209.981 279.269C203.186 288.277 201.35 289.84 201.35 289.84L219.713 293.241Z" fill="#F4AD85"/>
<path fill-rule="evenodd" clip-rule="evenodd" d="M191.618 197.455C191.618 197.455 179.406 202.052 173.622 223.47C167.746 244.889 161.502 319.9 160.125 336.538C158.748 353.177 183.079 367.517 196.392 351.43C209.705 335.343 227.517 285.612 227.517 285.612C227.517 285.612 222.1 277.522 211.909 274.305L205.39 282.21C205.39 282.026 230.272 193.043 191.618 197.455Z" fill="#1D135C"/>
<path fill-rule="evenodd" clip-rule="evenodd" d="M168.48 253.438C168.205 255.644 167.929 257.85 167.654 260.148C190.516 257.023 204.839 264.285 208.971 266.767C209.43 264.653 209.797 262.446 210.256 260.056C203.829 256.655 189.414 251.048 168.48 253.438ZM166.828 267.135C186.292 264.561 200.34 268.881 207.777 272.282C207.226 274.856 206.675 277.063 206.216 278.717C199.881 275.592 186.109 270.72 166.001 273.845C166.277 271.639 166.552 269.341 166.828 267.135Z" fill="#484D9B"/>
<path fill-rule="evenodd" clip-rule="evenodd" d="M244.411 197.455C245.329 197.455 246.156 196.72 246.156 195.709C246.156 194.789 245.421 193.962 244.411 193.962C243.493 193.962 242.667 194.698 242.667 195.709C242.667 196.628 243.401 197.455 244.411 197.455Z" fill="#D6D6F9"/>
<path fill-rule="evenodd" clip-rule="evenodd" d="M248.359 196.812C248.91 196.812 249.369 196.352 249.369 195.801C249.369 195.249 248.91 194.789 248.359 194.789C247.808 194.789 247.349 195.249 247.349 195.801C247.349 196.26 247.808 196.812 248.359 196.812Z" fill="#9C9DCC"/>
<path fill-rule="evenodd" clip-rule="evenodd" d="M244.411 196.996C245.146 196.996 245.697 196.444 245.697 195.709C245.697 194.973 245.146 194.422 244.411 194.422C243.677 194.422 243.126 194.973 243.126 195.709C243.126 196.444 243.677 196.996 244.411 196.996Z" fill="#9C9DCC"/>
<path fill-rule="evenodd" clip-rule="evenodd" d="M244.411 196.26C244.687 196.26 244.962 195.984 244.962 195.709C244.962 195.433 244.687 195.157 244.411 195.157C244.136 195.157 243.86 195.433 243.86 195.709C243.768 196.076 244.044 196.26 244.411 196.26Z" fill="#D6D6F9"/>
<path fill-rule="evenodd" clip-rule="evenodd" d="M244.962 195.617C245.237 195.617 245.513 195.341 245.513 195.065C245.513 194.789 245.237 194.514 244.962 194.514C244.687 194.514 244.411 194.789 244.411 195.065C244.411 195.341 244.595 195.617 244.962 195.617Z" fill="white"/>
<path fill-rule="evenodd" clip-rule="evenodd" d="M248.359 196.26C248.635 196.26 248.91 195.984 248.91 195.709C248.91 195.433 248.635 195.157 248.359 195.157C248.084 195.157 247.808 195.433 247.808 195.709C247.9 195.984 248.084 196.26 248.359 196.26Z" fill="#D6D6F9"/>
<path d="M193.913 354.739C193.729 354.739 193.454 354.647 193.27 354.464C192.995 354.096 192.995 353.636 193.362 353.268C194.188 352.533 195.015 351.706 195.749 350.787C208.144 335.803 224.855 290.3 226.507 285.612C225.405 284.141 220.356 277.89 212.092 275.132L205.941 282.578C205.665 282.854 205.298 282.946 204.931 282.762C204.564 282.578 204.38 282.21 204.564 281.843C204.655 281.567 212.368 253.622 212.46 230.181C212.46 229.721 212.827 229.353 213.286 229.353C213.745 229.353 214.112 229.721 214.112 230.181C214.112 248.841 209.246 270.352 207.134 278.625L211.266 273.569C211.45 273.294 211.817 273.202 212.184 273.294C222.559 276.511 227.976 284.6 228.252 284.968C228.435 285.152 228.435 285.428 228.344 285.703C227.609 287.726 210.348 335.803 197.127 351.798C196.3 352.717 195.474 353.636 194.556 354.464C194.372 354.647 194.188 354.739 193.913 354.739Z" fill="#100C4C"/>
<path d="M179.682 314.108C179.498 314.108 179.314 314.016 179.131 313.924C178.764 313.649 178.764 313.097 179.039 312.729L207.685 277.89C207.961 277.522 208.512 277.522 208.879 277.798C209.246 278.074 209.246 278.625 208.971 278.993L180.324 313.833C180.141 314.016 179.865 314.108 179.682 314.108Z" fill="#100C4C"/>
<path d="M179.865 307.214C179.59 307.214 179.223 307.03 179.131 306.754C178.947 306.295 179.131 305.835 179.59 305.651C182.344 304.456 187.486 302.618 187.761 302.526C188.22 302.342 188.679 302.618 188.771 302.985C188.955 303.445 188.679 303.905 188.312 303.997C188.22 303.997 182.987 305.927 180.233 307.122C180.049 307.214 179.957 307.214 179.865 307.214Z" fill="#100C4C"/>
<path d="M210.072 261.987C209.981 261.987 209.889 261.987 209.797 261.895C209.338 261.711 209.154 261.251 209.338 260.884C209.43 260.7 215.03 245.256 215.581 243.602C215.673 243.142 216.132 242.958 216.591 243.05C217.05 243.142 217.234 243.602 217.142 244.061C216.591 245.808 211.174 260.792 210.899 261.435C210.715 261.803 210.348 261.987 210.072 261.987Z" fill="#100C4C"/>
<path d="M326.035 251.599C325.576 251.599 325.208 251.231 325.208 250.772C324.566 228.342 319.791 210.784 310.977 198.65C310.701 198.283 310.793 197.731 311.161 197.547C311.528 197.271 312.079 197.363 312.262 197.731C321.26 210.141 326.126 227.974 326.861 250.772C326.953 251.231 326.585 251.599 326.035 251.599C326.126 251.599 326.126 251.599 326.035 251.599Z" fill="#100C4C"/>
<path d="M338.062 174.382C337.603 174.382 337.328 174.014 337.236 173.647C337.236 173.187 337.511 172.819 337.97 172.727C338.062 172.727 348.988 171.808 354.773 171.716C355.232 171.716 355.599 172.084 355.599 172.544C355.599 173.003 355.232 173.371 354.773 173.371C349.08 173.463 338.246 174.382 338.062 174.382Z" fill="#100C4C"/>
<path fill-rule="evenodd" clip-rule="evenodd" d="M424.185 248.106H278.107C275.995 248.106 274.067 249.853 273.884 251.967L263.509 343.341C263.233 345.455 264.794 347.201 266.906 347.201H412.983C415.095 347.201 417.023 345.455 417.207 343.341L427.582 251.875C427.857 249.761 426.296 248.106 424.185 248.106Z" fill="#D6D6F9"/>
<path fill-rule="evenodd" clip-rule="evenodd" d="M436.58 248.106H283.891C281.78 248.106 279.852 249.853 279.668 251.967L269.293 343.433C269.017 345.547 270.578 347.293 272.69 347.293H425.378C427.49 347.293 429.418 345.547 429.602 343.433L439.977 251.967C440.252 249.761 438.691 248.106 436.58 248.106Z" fill="white"/>
<path fill-rule="evenodd" clip-rule="evenodd" d="M366.157 304.364H352.569H350.549H336.96C335.032 304.364 333.93 305.927 334.39 307.857L349.447 368.16C349.906 370.091 351.834 371.654 353.762 371.654H360.373H362.393H369.004C370.932 371.654 372.401 370.091 372.309 368.16L369.922 307.857C369.646 305.927 367.994 304.364 366.157 304.364Z" fill="#9C9DCC"/>
<path fill-rule="evenodd" clip-rule="evenodd" d="M370.565 304.364H356.976H354.956H341.368C339.439 304.364 338.338 305.927 338.797 307.857L353.854 368.16C354.313 370.091 356.242 371.654 358.17 371.654H364.78H366.8H373.411C375.339 371.654 376.808 370.091 376.716 368.16L374.329 307.857C374.054 305.927 372.493 304.364 370.565 304.364Z" fill="#EAEBF5"/>
<path fill-rule="evenodd" clip-rule="evenodd" d="M396.548 377.261H318.873C315.751 377.261 313.272 374.687 313.272 371.653C313.272 368.528 315.843 366.046 318.873 366.046H396.548C399.67 366.046 402.149 368.62 402.149 371.653C402.149 374.687 399.67 377.261 396.548 377.261Z" fill="white"/>
<path fill-rule="evenodd" clip-rule="evenodd" d="M327.228 377.261H297.572C294.45 377.261 291.971 374.687 291.971 371.653C291.971 368.528 294.542 366.046 297.572 366.046H327.228C330.35 366.046 332.829 368.62 332.829 371.653C332.829 374.687 330.258 377.261 327.228 377.261Z" fill="#9C9DCC"/>
<path fill-rule="evenodd" clip-rule="evenodd" d="M6.97793 371.562H592.022C595.878 371.562 599 374.687 599 378.548C599 382.409 595.878 385.534 592.022 385.534H568.517C566.406 385.534 564.661 387.281 564.661 389.395C564.661 391.509 566.406 393.256 568.517 393.256H577.148C579.811 393.256 582.014 395.462 582.014 398.128C582.014 400.794 579.811 403 577.148 403H22.6783C20.0156 403 17.8121 400.794 17.8121 398.128C17.8121 395.462 20.0156 393.256 22.6783 393.256H29.4726C31.5843 393.256 33.3288 391.509 33.3288 389.395C33.3288 387.281 31.5843 385.534 29.4726 385.534H6.97793C3.1217 385.534 0 382.409 0 378.548C0 374.779 3.1217 371.562 6.97793 371.562ZM10.6505 403C13.2213 403 15.3331 400.886 15.3331 398.312V397.944C15.3331 395.37 13.2213 393.256 10.6505 393.256C8.07971 393.256 5.96796 395.37 5.96796 397.944V398.312C5.96796 400.978 8.07971 403 10.6505 403Z" fill="#100843"/>
<path fill-rule="evenodd" clip-rule="evenodd" d="M511.317 254.357C522.886 254.357 533.444 259.045 541.065 266.675C548.685 274.305 553.368 284.784 553.368 296.459C553.368 308.041 548.685 318.613 541.065 326.243C533.444 333.872 522.977 338.56 511.317 338.56C499.748 338.56 489.189 333.872 481.569 326.243C473.948 318.613 469.266 308.133 469.266 296.459C469.266 284.876 473.948 274.305 481.569 266.675C489.281 259.045 499.748 254.357 511.317 254.357Z" fill="#0D5CA9"/>
<path d="M516.857 328.047C534.335 324.965 546.009 308.282 542.932 290.783C539.854 273.284 523.191 261.596 505.713 264.677C488.235 267.758 476.561 284.442 479.638 301.941C482.716 319.44 499.379 331.128 516.857 328.047Z" fill="white"/>
<path fill-rule="evenodd" clip-rule="evenodd" d="M511.317 266.307C511.684 266.307 512.051 266.583 512.051 267.043V268.789C512.051 269.157 511.776 269.525 511.317 269.525C510.95 269.525 510.582 269.249 510.582 268.789V267.043C510.674 266.583 510.95 266.307 511.317 266.307Z" fill="#484D9B"/>
<path fill-rule="evenodd" clip-rule="evenodd" d="M511.317 323.393C511.684 323.393 512.051 323.669 512.051 324.128V325.875C512.051 326.243 511.776 326.61 511.317 326.61C510.95 326.61 510.582 326.334 510.582 325.875V324.128C510.674 323.669 510.95 323.393 511.317 323.393Z" fill="#484D9B"/>
<path fill-rule="evenodd" clip-rule="evenodd" d="M526.374 270.352C526.742 270.536 526.834 270.995 526.65 271.271L525.824 272.742C525.64 273.11 525.181 273.202 524.905 273.018C524.538 272.834 524.446 272.374 524.63 272.099L525.456 270.628C525.64 270.26 526.007 270.168 526.374 270.352Z" fill="#484D9B"/>
<path fill-rule="evenodd" clip-rule="evenodd" d="M497.82 319.808C498.187 319.992 498.279 320.451 498.096 320.727L497.269 322.198C497.086 322.565 496.626 322.657 496.351 322.474C495.984 322.29 495.892 321.83 496.076 321.554L496.902 320.083C497.086 319.716 497.545 319.532 497.82 319.808Z" fill="#484D9B"/>
<path fill-rule="evenodd" clip-rule="evenodd" d="M537.392 281.383C537.576 281.751 537.484 282.118 537.117 282.302L535.648 283.13C535.281 283.313 534.913 283.222 534.73 282.854C534.546 282.486 534.638 282.118 535.005 281.935L536.474 281.107C536.75 280.923 537.209 281.015 537.392 281.383Z" fill="#484D9B"/>
<path fill-rule="evenodd" clip-rule="evenodd" d="M487.996 309.88C488.179 310.247 488.088 310.615 487.72 310.799L486.251 311.626C485.884 311.81 485.517 311.718 485.333 311.351C485.15 310.983 485.241 310.615 485.609 310.431L487.078 309.604C487.353 309.42 487.812 309.512 487.996 309.88Z" fill="#484D9B"/>
<path fill-rule="evenodd" clip-rule="evenodd" d="M541.432 296.367C541.432 296.734 541.157 297.102 540.698 297.102H538.953C538.586 297.102 538.219 296.826 538.219 296.367C538.219 295.999 538.494 295.631 538.953 295.631H540.698C541.065 295.723 541.432 295.999 541.432 296.367Z" fill="#484D9B"/>
<path fill-rule="evenodd" clip-rule="evenodd" d="M484.415 296.367C484.415 296.734 484.14 297.102 483.681 297.102H482.028C481.661 297.102 481.293 296.826 481.293 296.367C481.293 295.999 481.569 295.631 482.028 295.631H483.772C484.048 295.723 484.415 295.999 484.415 296.367Z" fill="#484D9B"/>
<path fill-rule="evenodd" clip-rule="evenodd" d="M537.392 311.443C537.209 311.81 536.75 311.902 536.474 311.718L535.005 310.891C534.638 310.707 534.546 310.248 534.73 309.972C534.913 309.604 535.372 309.512 535.648 309.696L537.117 310.523C537.484 310.707 537.576 311.075 537.392 311.443Z" fill="#484D9B"/>
<path fill-rule="evenodd" clip-rule="evenodd" d="M487.996 282.854C487.812 283.222 487.353 283.313 487.078 283.13L485.609 282.302C485.241 282.118 485.15 281.659 485.333 281.383C485.517 281.015 485.976 280.923 486.251 281.107L487.72 281.935C488.088 282.118 488.179 282.578 487.996 282.854Z" fill="#484D9B"/>
<path fill-rule="evenodd" clip-rule="evenodd" d="M526.374 322.474C526.007 322.657 525.64 322.565 525.456 322.198L524.63 320.727C524.446 320.359 524.538 319.992 524.905 319.808C525.273 319.624 525.64 319.716 525.824 320.083L526.65 321.554C526.834 321.83 526.742 322.29 526.374 322.474Z" fill="#484D9B"/>
<path fill-rule="evenodd" clip-rule="evenodd" d="M497.82 273.018C497.453 273.202 497.086 273.11 496.902 272.742L496.076 271.271C495.892 270.904 495.984 270.536 496.351 270.352C496.718 270.168 497.086 270.26 497.269 270.628L498.096 272.099C498.279 272.374 498.187 272.834 497.82 273.018Z" fill="#484D9B"/>
<path fill-rule="evenodd" clip-rule="evenodd" d="M512.327 296.367C512.327 296.918 511.868 297.378 511.317 297.378C510.766 297.378 510.307 296.918 510.307 296.367V273.202C510.307 272.65 510.766 272.19 511.317 272.19C511.868 272.19 512.327 272.65 512.327 273.202V296.367Z" fill="#484D9B"/>
<path fill-rule="evenodd" clip-rule="evenodd" d="M512.051 295.723C512.419 296.091 512.419 296.735 512.051 297.102C511.684 297.47 511.041 297.47 510.674 297.01L499.197 284.692C498.83 284.325 498.83 283.681 499.289 283.313C499.656 282.946 500.299 282.946 500.666 283.313L512.051 295.723Z" fill="#CF4A60"/>
<path fill-rule="evenodd" clip-rule="evenodd" d="M128.449 39.6198H190.332C195.474 39.6198 199.697 43.8483 199.697 48.9961V87.7886V90.6382V115.274C199.697 115.734 199.422 116.102 199.054 116.285C198.687 116.469 198.228 116.377 197.953 116.102L181.977 100.107H128.541C123.399 100.107 119.176 95.878 119.176 90.7302V48.9961C118.992 43.8483 123.215 39.6198 128.449 39.6198Z" fill="white"/>
<path fill-rule="evenodd" clip-rule="evenodd" d="M124.225 44.5837H186.109C188.496 44.5837 190.608 45.5949 192.168 47.0657C193.729 48.6284 194.647 50.7427 194.647 53.1328V119.411C194.647 119.503 194.647 119.503 194.647 119.503L194.556 119.595H194.464C194.464 119.595 194.372 119.595 194.372 119.503L178.396 103.508C178.213 103.324 178.029 103.232 177.845 103.232H124.409C122.022 103.232 119.91 102.221 118.349 100.75C116.788 99.1873 115.87 97.073 115.87 94.6829V53.1328C115.87 50.7427 116.88 48.6284 118.349 47.0657C119.726 45.503 121.93 44.5837 124.225 44.5837ZM186.109 42.9291H124.225C121.379 42.9291 118.9 44.1241 117.064 45.9626C115.228 47.8011 114.034 50.375 114.034 53.1328V94.7749C114.034 97.6245 115.136 100.107 117.064 101.945C118.9 103.784 121.471 104.979 124.225 104.979H177.386L193.178 120.79C193.454 121.065 193.729 121.249 194.096 121.249C194.464 121.341 194.831 121.249 195.198 121.157C195.566 120.974 195.841 120.79 196.025 120.514C196.208 120.238 196.3 119.87 196.3 119.503V53.1328C196.3 50.2831 195.198 47.8011 193.27 45.9626C191.434 44.0322 188.955 42.9291 186.109 42.9291Z" fill="#9C9DCC"/>
<path fill-rule="evenodd" clip-rule="evenodd" d="M175.458 57.2694C171.326 53.1328 164.532 53.1328 160.309 57.2694L159.299 58.2806L158.289 57.2694C154.157 53.1328 147.363 53.1328 143.139 57.2694C139.007 61.406 139.007 68.2085 143.139 72.4371L144.149 73.4482L159.299 88.6159L174.448 73.4482L175.458 72.4371C179.681 68.3004 179.681 61.498 175.458 57.2694Z" fill="#3D8BD9"/>
<path fill-rule="evenodd" clip-rule="evenodd" d="M563.927 130.901C562.091 129.063 559.52 127.96 556.765 127.96C553.919 127.96 551.44 129.063 549.604 130.901C547.767 132.74 546.574 135.314 546.574 138.072C546.574 140.921 547.676 143.403 549.604 145.242C551.532 147.08 554.011 148.183 556.765 148.183C559.612 148.183 562.091 147.08 563.927 145.242C565.763 143.403 566.865 140.829 566.865 138.072C566.865 135.314 565.763 132.74 563.927 130.901ZM561.723 120.79C563.1 121.157 564.478 121.801 565.671 122.536C566.957 123.272 568.15 124.191 569.16 125.202C569.344 125.386 569.711 125.386 569.895 125.294L574.669 122.536C574.945 122.352 575.22 122.352 575.495 122.444C575.771 122.536 576.046 122.72 576.23 122.996L579.535 128.787C579.719 129.063 579.719 129.431 579.627 129.706C579.535 129.982 579.352 130.258 579.076 130.442L574.394 133.2C574.118 133.383 574.026 133.659 574.118 133.935C574.302 134.67 574.394 135.314 574.486 136.049C574.577 136.785 574.577 137.52 574.577 138.255C574.577 138.991 574.577 139.726 574.486 140.462C574.394 141.197 574.302 141.933 574.118 142.576C574.026 142.852 574.21 143.128 574.486 143.311L579.168 146.069C579.444 146.253 579.627 146.529 579.719 146.805C579.811 147.08 579.811 147.448 579.627 147.724L576.322 153.515C576.138 153.791 575.863 153.975 575.587 154.067C575.312 154.159 574.945 154.159 574.669 153.975L569.987 151.217C569.711 151.033 569.436 151.125 569.252 151.309C568.242 152.32 567.049 153.239 565.763 153.975C564.478 154.71 563.192 155.262 561.723 155.721C561.448 155.813 561.264 156.089 561.264 156.365V161.788C561.264 162.156 561.172 162.432 560.897 162.616C560.713 162.8 560.346 162.983 560.071 162.983H553.368C553.093 162.983 552.725 162.891 552.542 162.616C552.358 162.432 552.175 162.064 552.175 161.788V156.365C552.175 156.089 551.991 155.813 551.715 155.721C550.338 155.354 548.961 154.71 547.767 153.975C546.482 153.239 545.288 152.32 544.278 151.309C544.095 151.125 543.728 151.125 543.544 151.217L538.861 153.975C538.586 154.159 538.219 154.159 537.943 154.067C537.668 153.975 537.392 153.791 537.209 153.515L533.903 147.724C533.72 147.448 533.72 147.08 533.812 146.805C533.903 146.529 534.087 146.253 534.362 146.069L539.137 143.311C539.412 143.128 539.504 142.852 539.412 142.576C539.229 141.841 539.137 141.197 539.045 140.462C538.953 139.726 538.953 138.991 538.953 138.255C538.953 137.52 538.953 136.785 539.045 136.049C539.137 135.314 539.229 134.578 539.412 133.935C539.504 133.659 539.32 133.383 539.045 133.2L534.362 130.442C534.087 130.258 533.903 129.982 533.812 129.706C533.72 129.431 533.812 129.063 533.903 128.787L537.209 122.996C537.392 122.72 537.668 122.536 537.943 122.444C538.219 122.352 538.586 122.352 538.861 122.536L543.636 125.294C543.911 125.478 544.187 125.386 544.37 125.202C545.38 124.191 546.574 123.272 547.859 122.536C549.145 121.801 550.43 121.249 551.899 120.79C552.174 120.698 552.358 120.422 552.358 120.146V114.723C552.358 114.355 552.45 114.079 552.725 113.895C552.909 113.711 553.276 113.528 553.552 113.528H560.254C560.53 113.528 560.897 113.62 561.081 113.895C561.264 114.079 561.448 114.355 561.448 114.723V120.146C561.264 120.514 561.448 120.698 561.723 120.79Z" fill="#9C9DCC"/>
<path fill-rule="evenodd" clip-rule="evenodd" d="M77.9508 268.605H131.02C133.407 268.605 135.427 266.583 135.427 264.193V223.838C135.427 221.448 133.407 219.425 131.02 219.425H128.908V217.403C128.908 216.76 128.357 216.208 127.714 216.208H111.647C111.004 216.208 110.453 216.76 110.453 217.403V219.425H77.9508C75.5636 219.425 73.5437 221.448 73.5437 223.838V264.193C73.5437 266.583 75.5636 268.605 77.9508 268.605Z" fill="#606CE6"/>
<path fill-rule="evenodd" clip-rule="evenodd" d="M114.952 268.605H81.4397C79.5116 268.605 77.8589 266.951 77.8589 265.02V230.732C77.8589 228.802 79.5116 227.147 81.4397 227.147H114.952C116.88 227.147 118.533 228.802 118.533 230.732V265.02C118.533 266.951 116.972 268.605 114.952 268.605Z" fill="white"/>
<path fill-rule="evenodd" clip-rule="evenodd" d="M83.2761 268.605H132.213C134.601 268.605 137.447 266.583 138.549 264.193L153.973 229.445C155.075 227.055 153.973 225.033 151.494 225.033H148.924L149.934 222.827C150.301 221.907 149.934 221.264 149.015 221.264H131.112C130.193 221.264 129.183 221.999 128.816 222.827L127.806 225.033H102.465C100.078 225.033 97.2319 227.055 96.1301 229.445L80.7971 264.193C79.6953 266.583 80.7971 268.605 83.2761 268.605Z" fill="#3E8CD9"/>
<path fill-rule="evenodd" clip-rule="evenodd" d="M293.257 13.3291H391.774C394.528 13.3291 396.732 15.6273 396.732 18.2931V38.8843V40.4471V53.5924C396.732 53.8682 396.64 54.052 396.365 54.1439C396.181 54.2359 395.906 54.1439 395.722 54.052L387.183 45.503H293.257C290.502 45.503 288.299 43.2968 288.299 40.539V18.385C288.299 15.6273 290.502 13.3291 293.257 13.3291Z" fill="white"/>
<path fill-rule="evenodd" clip-rule="evenodd" d="M307.947 41.2744C314.19 41.2744 319.24 36.2185 319.24 29.9676C319.24 23.7167 314.19 18.6608 307.947 18.6608C301.704 18.6608 296.654 23.7167 296.654 29.9676C296.562 36.1266 301.704 41.2744 307.947 41.2744Z" fill="#EDBD54"/>
<path fill-rule="evenodd" clip-rule="evenodd" d="M307.947 27.9453C309.691 27.9453 311.069 26.5664 311.069 24.8198C311.069 23.0732 309.691 21.6943 307.947 21.6943C306.202 21.6943 304.825 23.0732 304.825 24.8198C304.825 26.5664 306.202 27.9453 307.947 27.9453Z" fill="white"/>
<path fill-rule="evenodd" clip-rule="evenodd" d="M307.947 28.9564C310.334 28.9564 312.354 30.9788 312.354 33.3688V35.2993V36.4943V37.7812C312.354 38.057 312.17 38.2409 311.895 38.2409H304.091C303.815 38.2409 303.632 38.057 303.632 37.7812V36.4943V35.2993V33.3688C303.54 30.8869 305.56 28.9564 307.947 28.9564Z" fill="white"/>
<path fill-rule="evenodd" clip-rule="evenodd" d="M336.042 28.8645H358.537C359.088 28.8645 359.547 29.3241 359.547 29.8757C359.547 30.4272 359.088 30.8869 358.537 30.8869H336.042C335.491 30.8869 335.032 30.4272 335.032 29.8757C335.032 29.3241 335.491 28.8645 336.042 28.8645Z" fill="#9C9DCC"/>
<path fill-rule="evenodd" clip-rule="evenodd" d="M329.523 28.8645H326.493C325.943 28.8645 325.484 29.3241 325.484 29.8757C325.484 30.4272 325.943 30.8869 326.493 30.8869H329.523C330.074 30.8869 330.533 30.4272 330.533 29.8757C330.533 29.3241 330.074 28.8645 329.523 28.8645Z" fill="#9C9DCC"/>
<path fill-rule="evenodd" clip-rule="evenodd" d="M326.493 22.5217H358.629C359.18 22.5217 359.639 22.9813 359.639 23.5328C359.639 24.0844 359.18 24.544 358.629 24.544H326.493C325.943 24.544 325.484 24.0844 325.484 23.5328C325.484 22.9813 325.943 22.5217 326.493 22.5217Z" fill="#9C9DCC"/>
<path fill-rule="evenodd" clip-rule="evenodd" d="M326.493 35.2074H358.629C359.18 35.2074 359.639 35.667 359.639 36.2185C359.639 36.7701 359.18 37.2297 358.629 37.2297H326.493C325.943 37.2297 325.484 36.7701 325.484 36.2185C325.484 35.667 325.943 35.2074 326.493 35.2074Z" fill="#9C9DCC"/>
<path fill-rule="evenodd" clip-rule="evenodd" d="M377.634 41.2744C383.878 41.2744 388.928 36.2185 388.928 29.9676C388.928 23.7167 383.878 18.6608 377.634 18.6608C371.391 18.6608 366.341 23.7167 366.341 29.8757C366.341 36.1266 371.391 41.2744 377.634 41.2744Z" fill="#3E8CD9"/>
<path fill-rule="evenodd" clip-rule="evenodd" d="M380.113 27.4856C379.471 26.8422 378.644 26.4745 377.634 26.4745C376.716 26.4745 375.798 26.8422 375.155 27.4856C374.513 28.1291 374.145 28.9564 374.145 29.9676C374.145 30.8869 374.513 31.8061 375.155 32.4496C375.798 33.0931 376.624 33.4608 377.634 33.4608C378.553 33.4608 379.471 33.0931 380.113 32.4496C380.756 31.8061 381.123 30.9788 381.123 29.9676C381.123 28.9564 380.756 28.1291 380.113 27.4856ZM379.379 23.9925C379.838 24.1763 380.297 24.3602 380.756 24.544C381.215 24.8198 381.582 25.0956 381.95 25.4633C382.042 25.5552 382.133 25.5552 382.225 25.4633L383.878 24.544C383.97 24.4521 384.061 24.4521 384.153 24.544C384.245 24.544 384.337 24.6359 384.429 24.7279L385.531 26.6583C385.622 26.7502 385.622 26.8422 385.531 26.9341C385.531 27.026 385.439 27.1179 385.347 27.2099L383.786 28.1291C383.694 28.221 383.694 28.313 383.694 28.4049C383.786 28.6807 383.786 28.8645 383.786 29.1403C383.786 29.4161 383.786 29.5999 383.786 29.8757C383.786 30.1515 383.786 30.3353 383.786 30.6111C383.786 30.8869 383.694 31.0707 383.694 31.3465C383.694 31.4384 383.694 31.5303 383.786 31.6223L385.347 32.5415C385.439 32.6334 385.531 32.7254 385.531 32.8173C385.531 32.9092 385.531 33.0011 385.531 33.0931L384.429 35.1154C384.337 35.2073 384.245 35.2993 384.153 35.2993C384.061 35.2993 383.97 35.2993 383.878 35.2993L382.317 34.38C382.225 34.2881 382.133 34.38 382.042 34.38C381.674 34.7477 381.307 35.0235 380.848 35.2993C380.389 35.575 379.93 35.7589 379.471 35.8508C379.379 35.8508 379.287 35.9427 379.287 36.0347V37.8732C379.287 37.9651 379.287 38.057 379.195 38.1489C379.103 38.2409 379.012 38.2409 378.92 38.2409H376.624C376.533 38.2409 376.441 38.2409 376.349 38.1489C376.257 38.057 376.257 37.9651 376.257 37.8732V36.0347C376.257 35.9427 376.165 35.8508 376.074 35.8508C375.615 35.667 375.155 35.4831 374.696 35.2993C374.237 35.0235 373.87 34.7477 373.503 34.38C373.411 34.2881 373.319 34.2881 373.227 34.38L371.666 35.2993C371.575 35.3912 371.483 35.3912 371.391 35.2993C371.299 35.2993 371.207 35.2073 371.116 35.1154L370.014 33.185C369.922 33.0931 369.922 33.0011 370.014 32.9092C370.014 32.8173 370.106 32.7254 370.197 32.6334L371.85 31.7142C371.942 31.6223 371.942 31.5303 371.942 31.4384C371.85 31.1626 371.85 30.9788 371.85 30.703C371.85 30.4272 371.85 30.2434 371.85 29.9676C371.85 29.6918 371.85 29.508 371.85 29.2322C371.85 28.9564 371.942 28.7726 371.942 28.4968C371.942 28.4049 371.942 28.313 371.85 28.221L370.289 27.3018C370.197 27.2099 370.106 27.1179 370.106 27.026C370.106 26.9341 370.106 26.8422 370.106 26.7502L371.207 24.8198C371.299 24.7279 371.391 24.6359 371.483 24.6359C371.575 24.6359 371.666 24.6359 371.758 24.6359L373.411 25.5552C373.503 25.6471 373.595 25.5552 373.686 25.5552C374.054 25.1875 374.421 24.9117 374.88 24.6359C375.339 24.3602 375.798 24.1763 376.257 24.0844C376.349 24.0844 376.441 23.9925 376.441 23.9005V22.062C376.441 21.9701 376.441 21.8782 376.533 21.7863C376.624 21.6943 376.716 21.6943 376.808 21.6943H379.103C379.195 21.6943 379.287 21.6943 379.379 21.7863C379.471 21.8782 379.471 21.9701 379.471 22.062V23.9005C379.195 23.9005 379.195 23.9925 379.379 23.9925Z" fill="white"/>
<path d="M168.48 363.104H99.5273V369.447H168.48V363.104Z" fill="#FBFDFF"/>
<path fill-rule="evenodd" clip-rule="evenodd" d="M107.974 363.656C108.709 363.656 109.352 363.013 109.352 362.277C109.352 361.542 108.709 360.898 107.974 360.898H59.3124C57.8434 360.898 56.4662 361.542 55.548 362.461C54.5381 363.472 53.9872 364.759 53.9872 366.23C53.9872 367.701 54.6299 369.08 55.548 369.999C56.558 371.01 57.8434 371.562 59.3124 371.562H107.974C108.709 371.562 109.352 370.918 109.352 370.183C109.352 369.447 108.709 368.804 107.974 368.804H105.771C105.403 368.528 105.036 368.252 104.669 367.885C104.026 367.241 103.567 366.506 103.659 365.77C103.751 364.943 104.302 364.208 104.944 363.656H107.974Z" fill="#484D9B"/>
<path fill-rule="evenodd" clip-rule="evenodd" d="M168.48 363.656C169.215 363.656 169.858 363.013 169.858 362.277C169.858 361.542 169.215 360.898 168.48 360.898H107.423C105.954 360.898 104.577 361.542 103.659 362.461C102.649 363.472 102.098 364.759 102.098 366.23C102.098 367.701 102.741 369.08 103.659 369.999C104.669 371.01 105.954 371.562 107.423 371.562H168.48C169.215 371.562 169.858 370.918 169.858 370.183C169.858 369.447 169.215 368.804 168.48 368.804H107.423C106.689 368.804 106.046 368.528 105.587 368.068C105.128 367.609 104.853 366.965 104.853 366.23C104.853 365.495 105.128 364.851 105.587 364.391C106.046 363.932 106.689 363.656 107.423 363.656H168.48Z" fill="#606CE6"/>
<path d="M119.267 350.97H61.4241V358.692H119.267V350.97Z" fill="#FBFDFF"/>
<path fill-rule="evenodd" clip-rule="evenodd" d="M108.984 351.614C108.066 351.614 107.332 350.878 107.332 349.959C107.332 349.04 108.066 348.305 108.984 348.305H153.882C155.626 348.305 157.279 349.04 158.472 350.235C159.666 351.43 160.401 352.993 160.401 354.831C160.401 356.578 159.666 358.232 158.472 359.427C157.279 360.623 155.718 361.358 153.882 361.358H108.984C108.066 361.358 107.332 360.622 107.332 359.703C107.332 358.784 108.066 358.049 108.984 358.049H111.647C112.106 357.681 112.565 357.313 112.932 356.945C113.667 356.118 114.218 355.199 114.126 354.372C114.034 353.36 113.391 352.441 112.565 351.798H108.984V351.614Z" fill="#DF6162"/>
<path fill-rule="evenodd" clip-rule="evenodd" d="M61.4242 351.614C60.5061 351.614 59.7715 350.878 59.7715 349.959C59.7715 349.04 60.5061 348.305 61.4242 348.305H109.719C111.463 348.305 113.116 349.04 114.31 350.235C115.503 351.43 116.238 352.993 116.238 354.831C116.238 356.578 115.503 358.232 114.31 359.427C113.116 360.623 111.555 361.358 109.719 361.358H61.4242C60.5061 361.358 59.7715 360.622 59.7715 359.703C59.7715 358.784 60.5061 358.049 61.4242 358.049H109.719C110.545 358.049 111.371 357.681 111.922 357.129C112.473 356.578 112.841 355.75 112.841 354.923C112.841 354.096 112.473 353.269 111.922 352.717C111.371 352.165 110.545 351.798 109.719 351.798H61.4242V351.614Z" fill="#B64443"/>
<path d="M141.946 337.733H104.394V345.547H141.946V337.733Z" fill="#FBFDFF"/>
<path fill-rule="evenodd" clip-rule="evenodd" d="M114.952 338.469C115.87 338.469 116.605 337.733 116.605 336.814C116.605 335.895 115.87 335.159 114.952 335.159H87.3159C85.4796 335.159 83.827 335.895 82.6334 337.09C81.4398 338.285 80.7053 339.939 80.7053 341.778C80.7053 343.616 81.4398 345.271 82.6334 346.466C83.827 347.661 85.4796 348.396 87.3159 348.396H114.952C115.87 348.396 116.605 347.661 116.605 346.742C116.605 345.823 115.87 345.087 114.952 345.087H112.198C111.739 344.719 111.28 344.352 110.821 343.892C110.086 343.065 109.443 342.146 109.535 341.226C109.627 340.123 110.361 339.296 111.096 338.56H114.952V338.469Z" fill="#100843"/>
<path fill-rule="evenodd" clip-rule="evenodd" d="M141.946 338.469C142.864 338.469 143.598 337.733 143.598 336.814C143.598 335.895 142.864 335.159 141.946 335.159H114.218C112.381 335.159 110.729 335.895 109.535 337.09C108.342 338.285 107.607 339.939 107.607 341.778C107.607 343.616 108.342 345.271 109.535 346.466C110.729 347.661 112.381 348.396 114.218 348.396H141.946C142.864 348.396 143.598 347.661 143.598 346.742C143.598 345.823 142.864 345.087 141.946 345.087H114.218C113.3 345.087 112.473 344.719 111.922 344.168C111.371 343.616 111.004 342.789 111.004 341.87C111.004 340.951 111.371 340.123 111.922 339.572C112.473 339.02 113.3 338.652 114.218 338.652H141.946V338.469Z" fill="#282564"/>
<path fill-rule="evenodd" clip-rule="evenodd" d="M433.917 365.954H480.651C482.211 365.954 483.405 367.241 483.405 368.712C483.405 370.275 482.12 371.47 480.651 371.47H433.917C432.356 371.47 431.162 370.183 431.162 368.712C431.071 367.241 432.356 365.954 433.917 365.954Z" fill="#DE9396"/>
<path fill-rule="evenodd" clip-rule="evenodd" d="M435.478 365.954H479.09C479.916 365.954 480.651 365.219 480.651 364.391C480.651 363.564 479.916 362.829 479.09 362.829H435.478C434.651 362.829 433.917 363.564 433.917 364.391C433.917 365.311 434.651 365.954 435.478 365.954Z" fill="#484D9B"/>
<path fill-rule="evenodd" clip-rule="evenodd" d="M435.57 357.497H478.998C480.467 357.497 481.661 358.692 481.661 360.163C481.661 361.634 480.467 362.829 478.998 362.829H435.57C434.101 362.829 432.907 361.634 432.907 360.163C432.907 358.692 434.101 357.497 435.57 357.497Z" fill="#DF6162"/>
<path fill-rule="evenodd" clip-rule="evenodd" d="M437.222 359.06L440.619 355.659C441.078 355.199 441.905 355.199 442.456 355.659L445.853 359.06C446.312 359.519 446.312 360.347 445.853 360.898L442.456 364.299C441.997 364.759 441.17 364.759 440.619 364.299L437.222 360.898C436.671 360.347 436.671 359.611 437.222 359.06Z" fill="#EDBD54"/>
<path fill-rule="evenodd" clip-rule="evenodd" d="M445.118 359.06L448.515 355.659C448.974 355.199 449.801 355.199 450.352 355.659L453.749 359.06C454.208 359.519 454.208 360.347 453.749 360.898L450.352 364.299C449.893 364.759 449.066 364.759 448.515 364.299L445.118 360.898C444.567 360.347 444.567 359.611 445.118 359.06Z" fill="#EDBD54"/>
<path fill-rule="evenodd" clip-rule="evenodd" d="M453.014 359.06L456.412 355.659C456.871 355.199 457.697 355.199 458.248 355.659L461.645 359.06C462.104 359.519 462.104 360.347 461.645 360.898L458.248 364.299C457.789 364.759 456.962 364.759 456.412 364.299L453.014 360.898C452.463 360.347 452.463 359.611 453.014 359.06Z" fill="#EDBD54"/>
<path fill-rule="evenodd" clip-rule="evenodd" d="M460.91 359.06L464.308 355.659C464.767 355.199 465.593 355.199 466.144 355.659L469.541 359.06C470 359.519 470 360.347 469.541 360.898L466.144 364.299C465.685 364.759 464.859 364.759 464.308 364.299L460.91 360.898C460.36 360.347 460.36 359.611 460.91 359.06Z" fill="#EDBD54"/>
<path fill-rule="evenodd" clip-rule="evenodd" d="M468.807 359.06L472.204 355.659C472.663 355.199 473.489 355.199 474.04 355.659L477.437 359.06C477.896 359.519 477.896 360.347 477.437 360.898L474.04 364.299C473.581 364.759 472.755 364.759 472.204 364.299L468.807 360.898C468.256 360.347 468.256 359.611 468.807 359.06Z" fill="#EDBD54"/>
<path fill-rule="evenodd" clip-rule="evenodd" d="M431.897 357.497H482.487C483.221 357.497 483.864 358.141 483.864 358.876C483.864 359.611 483.221 360.255 482.487 360.255H431.897C431.162 360.255 430.52 359.611 430.52 358.876C430.52 358.141 431.162 357.497 431.897 357.497Z" fill="#606CE6"/>
<path fill-rule="evenodd" clip-rule="evenodd" d="M484.599 353.728V353.82C484.599 355.842 482.946 357.589 480.834 357.589H433.641C429.693 357.589 429.143 354.372 430.244 349.959C431.989 342.881 438.416 337.641 445.945 337.641H468.347C477.253 337.549 484.507 344.811 484.599 353.728Z" fill="#DE9396"/>
<path fill-rule="evenodd" clip-rule="evenodd" d="M442.731 340.031C442.915 340.215 442.915 340.583 442.731 340.767L441.354 342.146C441.17 342.329 440.803 342.329 440.619 342.146C440.436 341.962 440.436 341.594 440.619 341.41L441.997 340.031C442.18 339.847 442.456 339.847 442.731 340.031Z" fill="#DF6162"/>
<path fill-rule="evenodd" clip-rule="evenodd" d="M448.791 340.031C448.975 340.215 448.975 340.583 448.791 340.767L447.414 342.146C447.23 342.329 446.863 342.329 446.679 342.146C446.496 341.962 446.496 341.594 446.679 341.41L448.056 340.031C448.332 339.847 448.607 339.847 448.791 340.031Z" fill="#DF6162"/>
<path fill-rule="evenodd" clip-rule="evenodd" d="M454.943 340.031C455.126 340.215 455.126 340.583 454.943 340.767L453.565 342.146C453.382 342.329 453.014 342.329 452.831 342.146C452.647 341.962 452.647 341.594 452.831 341.41L454.208 340.031C454.392 339.847 454.759 339.847 454.943 340.031Z" fill="#DF6162"/>
<path fill-rule="evenodd" clip-rule="evenodd" d="M461.094 340.031C461.278 340.215 461.278 340.583 461.094 340.767L459.717 342.146C459.533 342.329 459.166 342.329 458.982 342.146C458.799 341.962 458.799 341.594 458.982 341.41L460.36 340.031C460.543 339.847 460.911 339.847 461.094 340.031Z" fill="#DF6162"/>
<path fill-rule="evenodd" clip-rule="evenodd" d="M467.246 340.031C467.429 340.215 467.429 340.583 467.246 340.767L465.868 342.146C465.685 342.329 465.318 342.329 465.134 342.146C464.95 341.962 464.95 341.594 465.134 341.41L466.511 340.031C466.695 339.847 467.062 339.847 467.246 340.031Z" fill="#DF6162"/>
<path fill-rule="evenodd" clip-rule="evenodd" d="M473.397 340.031C473.581 340.215 473.581 340.583 473.397 340.767L472.02 342.146C471.836 342.329 471.469 342.329 471.286 342.146C471.102 341.962 471.102 341.594 471.286 341.41L472.663 340.031C472.846 339.847 473.122 339.847 473.397 340.031Z" fill="#DF6162"/>
<path fill-rule="evenodd" clip-rule="evenodd" d="M474.774 344.903C474.591 345.087 474.591 345.455 474.774 345.639L476.152 347.018C476.335 347.201 476.703 347.201 476.886 347.018C477.07 346.834 477.07 346.466 476.886 346.282L475.509 344.903C475.325 344.719 475.05 344.719 474.774 344.903Z" fill="#DF6162"/>
<path fill-rule="evenodd" clip-rule="evenodd" d="M468.623 344.903C468.439 345.087 468.439 345.455 468.623 345.639L470 347.018C470.184 347.201 470.551 347.201 470.735 347.018C470.918 346.834 470.918 346.466 470.735 346.282L469.357 344.903C469.174 344.719 468.898 344.719 468.623 344.903Z" fill="#DF6162"/>
<path fill-rule="evenodd" clip-rule="evenodd" d="M462.563 344.903C462.38 345.087 462.38 345.455 462.563 345.639L463.94 347.018C464.124 347.201 464.491 347.201 464.675 347.018C464.859 346.834 464.859 346.466 464.675 346.282L463.298 344.903C463.114 344.719 462.747 344.719 462.563 344.903Z" fill="#DF6162"/>
<path fill-rule="evenodd" clip-rule="evenodd" d="M456.412 344.903C456.228 345.087 456.228 345.455 456.412 345.639L457.789 347.018C457.972 347.201 458.34 347.201 458.523 347.018C458.707 346.834 458.707 346.466 458.523 346.282L457.146 344.903C456.962 344.719 456.595 344.719 456.412 344.903Z" fill="#DF6162"/>
<path fill-rule="evenodd" clip-rule="evenodd" d="M450.26 344.903C450.076 345.087 450.076 345.455 450.26 345.639L451.637 347.018C451.821 347.201 452.188 347.201 452.372 347.018C452.555 346.834 452.555 346.466 452.372 346.282L450.995 344.903C450.811 344.719 450.444 344.719 450.26 344.903Z" fill="#DF6162"/>
<path fill-rule="evenodd" clip-rule="evenodd" d="M444.108 344.903C443.925 345.087 443.925 345.455 444.108 345.639L445.486 347.018C445.669 347.201 446.037 347.201 446.22 347.018C446.404 346.834 446.404 346.466 446.22 346.282L444.843 344.903C444.659 344.719 444.292 344.719 444.108 344.903Z" fill="#DF6162"/>
<path fill-rule="evenodd" clip-rule="evenodd" d="M414.085 236.432H470.643C474.499 236.432 477.621 233.306 477.621 229.445V152.136C477.621 148.275 474.499 145.15 470.643 145.15H414.085C410.229 145.15 407.107 148.275 407.107 152.136V229.445C407.107 233.306 410.229 236.432 414.085 236.432Z" fill="#9C9DCC"/>
<path fill-rule="evenodd" clip-rule="evenodd" d="M414.636 152.044H470.092C470.826 152.044 471.377 152.596 471.377 153.331C471.377 154.067 470.826 154.618 470.092 154.618H414.728C413.993 154.618 413.442 154.067 413.442 153.331C413.35 152.596 413.993 152.044 414.636 152.044Z" fill="#3D8BD9"/>
<path fill-rule="evenodd" clip-rule="evenodd" d="M414.636 160.134H470.092C470.826 160.134 471.377 160.685 471.377 161.421C471.377 162.156 470.826 162.708 470.092 162.708H414.728C413.993 162.708 413.442 162.156 413.442 161.421C413.35 160.685 413.993 160.134 414.636 160.134Z" fill="#3D8BD9"/>
<path fill-rule="evenodd" clip-rule="evenodd" d="M459.625 168.958H470.092C470.826 168.958 471.377 169.51 471.377 170.245C471.377 170.981 470.826 171.532 470.092 171.532H459.625C458.89 171.532 458.34 170.981 458.34 170.245C458.34 169.602 458.89 168.958 459.625 168.958Z" fill="#3D8BD9"/>
<path fill-rule="evenodd" clip-rule="evenodd" d="M459.625 178.151H470.092C470.826 178.151 471.377 178.703 471.377 179.438C471.377 180.173 470.826 180.725 470.092 180.725H459.625C458.89 180.725 458.34 180.173 458.34 179.438C458.34 178.703 458.89 178.151 459.625 178.151Z" fill="#3D8BD9"/>
<path fill-rule="evenodd" clip-rule="evenodd" d="M459.625 187.252H470.092C470.826 187.252 471.377 187.803 471.377 188.539C471.377 189.274 470.826 189.826 470.092 189.826H459.625C458.89 189.826 458.34 189.274 458.34 188.539C458.34 187.803 458.89 187.252 459.625 187.252Z" fill="#3D8BD9"/>
<path fill-rule="evenodd" clip-rule="evenodd" d="M459.625 196.352H470.092C470.826 196.352 471.377 196.904 471.377 197.639C471.377 198.375 470.826 198.926 470.092 198.926H459.625C458.89 198.926 458.34 198.375 458.34 197.639C458.34 196.996 458.89 196.352 459.625 196.352Z" fill="#3D8BD9"/>
<path fill-rule="evenodd" clip-rule="evenodd" d="M459.625 205.545H470.092C470.826 205.545 471.377 206.096 471.377 206.832C471.377 207.567 470.826 208.119 470.092 208.119H459.625C458.89 208.119 458.34 207.567 458.34 206.832C458.34 206.096 458.89 205.545 459.625 205.545Z" fill="#3D8BD9"/>
<path fill-rule="evenodd" clip-rule="evenodd" d="M459.625 214.645H470.092C470.826 214.645 471.377 215.197 471.377 215.932C471.377 216.668 470.826 217.219 470.092 217.219H459.625C458.89 217.219 458.34 216.668 458.34 215.932C458.34 215.197 458.89 214.645 459.625 214.645Z" fill="#3D8BD9"/>
<path fill-rule="evenodd" clip-rule="evenodd" d="M443.557 223.746H470.092C470.826 223.746 471.377 224.297 471.377 225.033C471.377 225.768 470.826 226.32 470.092 226.32H443.557C442.823 226.32 442.272 225.768 442.272 225.033C442.272 224.297 442.823 223.746 443.557 223.746Z" fill="#3D8BD9"/>
<path fill-rule="evenodd" clip-rule="evenodd" d="M446.128 214.645H453.933C454.667 214.645 455.218 215.197 455.218 215.932C455.218 216.668 454.667 217.219 453.933 217.219H446.128C445.394 217.219 444.843 216.668 444.843 215.932C444.843 215.197 445.486 214.645 446.128 214.645Z" fill="#3D8BD9"/>
<path fill-rule="evenodd" clip-rule="evenodd" d="M449.709 205.545H453.657C454.392 205.545 454.943 206.096 454.943 206.832C454.943 207.567 454.392 208.119 453.657 208.119H449.709C448.975 208.119 448.424 207.567 448.424 206.832C448.424 206.096 448.975 205.545 449.709 205.545Z" fill="#3D8BD9"/>
<path fill-rule="evenodd" clip-rule="evenodd" d="M452.464 196.352H455.31C456.044 196.352 456.595 196.904 456.595 197.639C456.595 198.375 456.044 198.926 455.31 198.926H452.464C451.729 198.926 451.178 198.375 451.178 197.639C451.178 196.996 451.729 196.352 452.464 196.352Z" fill="#3D8BD9"/>
<path fill-rule="evenodd" clip-rule="evenodd" d="M413.35 177.324H418.308V183.758V222.275V223.746C418.308 225.125 417.207 226.228 415.829 226.228C414.452 226.228 413.35 225.125 413.35 223.746V222.275V183.85V177.324Z" fill="white"/>
<path fill-rule="evenodd" clip-rule="evenodd" d="M418.308 199.845V222.367V223.838C418.308 225.217 417.207 226.32 415.829 226.32C414.452 226.32 413.35 225.217 413.35 223.838V222.367V199.845C413.35 200.489 413.81 200.948 414.452 200.948H417.207C417.849 200.948 418.308 199.202 418.308 199.845Z" fill="white"/>
<path fill-rule="evenodd" clip-rule="evenodd" d="M415.37 167.855C415.187 168.131 413.442 175.577 413.442 177.324C414.269 179.254 417.482 178.794 418.4 177.324C418.4 175.577 416.564 168.131 416.472 167.855C416.197 167.396 415.554 167.396 415.37 167.855Z" fill="#D6D6F9"/>
<path fill-rule="evenodd" clip-rule="evenodd" d="M415.37 167.855C415.37 167.947 415.095 168.683 414.819 169.786C415.095 169.97 415.462 170.062 415.829 170.062C416.197 170.062 416.564 169.97 416.839 169.786C416.564 168.683 416.38 167.947 416.289 167.855C416.197 167.396 415.554 167.396 415.37 167.855Z" fill="#484D9B"/>
<path fill-rule="evenodd" clip-rule="evenodd" d="M417.207 221.264H414.452C413.81 221.264 413.35 220.804 413.35 220.161V222.551C413.35 223.194 413.81 223.654 414.452 223.654H417.207C417.849 223.654 418.308 223.194 418.308 222.551V220.161C418.308 220.712 417.849 221.264 417.207 221.264Z" fill="#D6D6F9"/>
<path fill-rule="evenodd" clip-rule="evenodd" d="M442.823 177.691C441.721 176.588 440.16 175.853 438.416 175.853C436.671 175.853 435.111 176.588 434.009 177.691C432.907 178.794 432.173 180.357 432.173 182.104C432.173 183.85 432.907 185.413 434.009 186.516C435.111 187.619 436.671 188.355 438.416 188.355C440.16 188.355 441.721 187.619 442.823 186.516C443.925 185.413 444.659 183.85 444.659 182.104C444.659 180.449 443.925 178.886 442.823 177.691ZM441.446 171.532C442.272 171.808 443.099 172.176 443.925 172.544C444.751 173.003 445.394 173.555 446.037 174.198C446.128 174.29 446.312 174.382 446.496 174.29L449.434 172.635C449.617 172.544 449.801 172.544 449.985 172.544C450.168 172.635 450.352 172.727 450.444 172.911L452.464 176.496C452.555 176.68 452.555 176.864 452.555 177.048C452.464 177.232 452.372 177.416 452.188 177.508L449.342 179.162C449.158 179.254 449.158 179.438 449.158 179.622C449.25 180.081 449.342 180.541 449.434 180.909C449.526 181.368 449.526 181.828 449.526 182.288C449.526 182.747 449.526 183.207 449.434 183.667C449.342 184.126 449.342 184.586 449.158 184.953C449.158 185.137 449.158 185.321 449.342 185.413L452.188 187.068C452.372 187.16 452.464 187.344 452.555 187.527C452.647 187.711 452.555 187.895 452.464 188.079L450.444 191.664C450.352 191.848 450.168 191.94 449.985 192.032C449.801 192.124 449.617 192.032 449.434 191.94L446.496 190.285C446.312 190.193 446.128 190.193 446.037 190.377C445.394 191.021 444.659 191.572 443.925 192.032C443.19 192.491 442.364 192.859 441.446 193.043C441.262 193.135 441.17 193.227 441.17 193.411V196.812C441.17 196.996 441.079 197.179 440.987 197.363C440.895 197.455 440.711 197.547 440.436 197.547H436.304C436.121 197.547 435.937 197.455 435.753 197.363C435.662 197.271 435.57 197.088 435.57 196.812V193.411C435.57 193.227 435.478 193.043 435.294 193.043C434.468 192.767 433.642 192.399 432.815 192.032C431.989 191.572 431.346 191.021 430.612 190.377C430.52 190.285 430.244 190.193 430.153 190.377L427.215 192.032C427.031 192.124 426.847 192.124 426.664 192.124C426.48 192.032 426.296 191.94 426.205 191.756L424.185 188.171C424.093 187.987 424.093 187.803 424.093 187.619C424.185 187.435 424.276 187.252 424.46 187.16L427.398 185.505C427.582 185.413 427.582 185.229 427.582 185.045C427.49 184.586 427.398 184.126 427.306 183.758C427.215 183.299 427.215 182.839 427.215 182.38C427.215 181.92 427.215 181.46 427.306 181.001C427.398 180.541 427.398 180.081 427.582 179.714C427.582 179.53 427.582 179.346 427.398 179.254L424.46 177.599C424.276 177.508 424.185 177.324 424.093 177.14C424.001 176.956 424.093 176.772 424.185 176.588L426.205 173.003C426.296 172.819 426.48 172.727 426.664 172.635C426.847 172.544 427.031 172.635 427.215 172.727L430.153 174.382C430.336 174.474 430.52 174.474 430.612 174.29C431.254 173.647 431.989 173.095 432.723 172.635C433.458 172.176 434.284 171.808 435.202 171.624C435.386 171.532 435.478 171.44 435.478 171.257V167.855C435.478 167.672 435.57 167.488 435.662 167.304C435.753 167.212 435.937 167.12 436.212 167.12H440.344C440.528 167.12 440.711 167.212 440.895 167.304C440.987 167.396 441.079 167.58 441.079 167.855V171.257C441.17 171.349 441.262 171.44 441.446 171.532Z" fill="white"/>
<path fill-rule="evenodd" clip-rule="evenodd" d="M433.641 208.027C432.907 207.291 431.989 206.924 430.887 206.924C429.785 206.924 428.867 207.383 428.133 208.027C427.398 208.762 427.031 209.681 427.031 210.784C427.031 211.888 427.49 212.807 428.133 213.542C428.867 214.278 429.785 214.645 430.887 214.645C431.989 214.645 432.907 214.186 433.641 213.542C434.376 212.807 434.743 211.888 434.743 210.784C434.743 209.681 434.284 208.67 433.641 208.027ZM432.815 204.166C433.366 204.35 433.825 204.534 434.376 204.809C434.835 205.085 435.294 205.453 435.753 205.82C435.845 205.912 435.937 205.912 436.029 205.82L437.865 204.809C437.957 204.717 438.049 204.717 438.232 204.809C438.324 204.809 438.416 204.901 438.508 204.993L439.793 207.199C439.885 207.291 439.885 207.475 439.793 207.567C439.793 207.659 439.701 207.751 439.609 207.843L437.865 208.854C437.773 208.946 437.773 209.038 437.773 209.13C437.865 209.406 437.865 209.681 437.957 209.957C437.957 210.233 438.049 210.509 438.049 210.784C438.049 211.06 438.049 211.336 437.957 211.612C437.957 211.888 437.865 212.163 437.773 212.439C437.773 212.531 437.773 212.623 437.865 212.715L439.609 213.726C439.701 213.818 439.793 213.91 439.793 214.002C439.793 214.094 439.793 214.278 439.793 214.37L438.508 216.576C438.416 216.668 438.324 216.76 438.232 216.76C438.14 216.76 437.957 216.76 437.865 216.76L436.029 215.748C435.937 215.656 435.845 215.748 435.753 215.748C435.386 216.116 434.927 216.484 434.376 216.76C433.917 217.035 433.366 217.219 432.815 217.403C432.723 217.403 432.632 217.495 432.632 217.587V219.701C432.632 219.793 432.54 219.977 432.54 219.977C432.448 220.069 432.356 220.069 432.264 220.069H429.693C429.602 220.069 429.418 219.977 429.418 219.977C429.326 219.885 429.326 219.793 429.326 219.701V217.587C429.326 217.495 429.234 217.403 429.143 217.311C428.592 217.127 428.133 216.943 427.582 216.668C427.123 216.392 426.664 216.024 426.204 215.656C426.113 215.565 426.021 215.565 425.929 215.656L424.093 216.668C424.001 216.76 423.909 216.76 423.725 216.668C423.634 216.668 423.542 216.576 423.45 216.484L422.165 214.278C422.073 214.186 422.073 214.094 422.165 213.91C422.165 213.818 422.256 213.726 422.348 213.634L424.185 212.623C424.276 212.531 424.368 212.439 424.276 212.347C424.185 212.071 424.185 211.796 424.093 211.52C424.093 211.244 424.001 210.968 424.001 210.693C424.001 210.417 424.001 210.141 424.093 209.865C424.093 209.589 424.185 209.314 424.276 209.038C424.276 208.946 424.276 208.854 424.185 208.762L422.44 207.751C422.348 207.659 422.256 207.567 422.256 207.475C422.256 207.383 422.256 207.199 422.256 207.107L423.542 204.901C423.634 204.809 423.725 204.717 423.817 204.717C423.909 204.717 424.093 204.717 424.185 204.717L426.021 205.729C426.113 205.82 426.204 205.729 426.296 205.729C426.664 205.361 427.123 204.993 427.582 204.717C428.041 204.442 428.592 204.258 429.143 204.074C429.234 204.074 429.326 203.982 429.326 203.798V201.684C429.326 201.592 429.418 201.408 429.418 201.408C429.51 201.316 429.602 201.316 429.693 201.316H432.264C432.356 201.316 432.54 201.408 432.54 201.408C432.632 201.5 432.632 201.592 432.632 201.684V203.798C432.632 204.074 432.632 204.166 432.815 204.166Z" fill="white"/>
<path fill-rule="evenodd" clip-rule="evenodd" d="M150.485 133.383H171.877C173.255 133.383 174.448 134.487 174.448 135.957V157.376C174.448 158.755 173.346 159.95 171.877 159.95H150.485C149.107 159.95 147.914 158.847 147.914 157.376V135.957C148.006 134.487 149.107 133.383 150.485 133.383Z" fill="white"/>
<path fill-rule="evenodd" clip-rule="evenodd" d="M150.485 168.867H171.877C173.255 168.867 174.448 169.97 174.448 171.44V192.859C174.448 194.238 173.346 195.433 171.877 195.433H150.485C149.107 195.433 147.914 194.33 147.914 192.859V171.44C148.006 169.97 149.107 168.867 150.485 168.867Z" fill="white"/>
<path fill-rule="evenodd" clip-rule="evenodd" d="M147.179 129.523H168.572C169.49 129.523 170.317 129.89 170.959 130.534L171.051 130.626C171.602 131.269 171.969 132.005 171.969 132.924V154.342C171.969 155.262 171.602 156.089 170.959 156.732C170.317 157.376 169.49 157.744 168.572 157.744H147.179C146.261 157.744 145.435 157.376 144.792 156.732L144.7 156.64C144.149 155.997 143.782 155.262 143.782 154.342V132.924C143.782 132.005 144.149 131.177 144.792 130.534C145.343 129.89 146.261 129.523 147.179 129.523ZM168.572 131.177H147.179C146.72 131.177 146.261 131.361 145.986 131.637C145.71 131.913 145.527 132.372 145.527 132.832V154.25C145.527 154.71 145.71 155.078 145.986 155.445C146.261 155.721 146.72 155.905 147.179 155.905H168.572C169.031 155.905 169.49 155.721 169.766 155.445C170.041 155.17 170.225 154.71 170.225 154.25V132.832C170.225 132.372 170.041 132.005 169.766 131.637C169.49 131.361 169.031 131.177 168.572 131.177Z" fill="#9C9DCC"/>
<path fill-rule="evenodd" clip-rule="evenodd" d="M147.179 165.006H168.572C169.49 165.006 170.317 165.373 170.959 166.017L171.051 166.109C171.602 166.752 171.969 167.488 171.969 168.407V189.826C171.969 190.745 171.602 191.572 170.959 192.216C170.317 192.859 169.49 193.227 168.572 193.227H147.179C146.261 193.227 145.435 192.859 144.792 192.216L144.7 192.124C144.149 191.48 143.782 190.745 143.782 189.826V168.407C143.782 167.488 144.149 166.66 144.792 166.017C145.343 165.373 146.261 165.006 147.179 165.006ZM168.572 166.66H147.179C146.72 166.66 146.261 166.844 145.986 167.12C145.71 167.396 145.527 167.855 145.527 168.315V189.734C145.527 190.193 145.71 190.561 145.986 190.929C146.261 191.204 146.72 191.388 147.179 191.388H168.572C169.031 191.388 169.49 191.204 169.766 190.929C170.041 190.653 170.225 190.193 170.225 189.734V168.315C170.225 167.855 170.041 167.488 169.766 167.12C169.49 166.844 169.031 166.66 168.572 166.66Z" fill="#9C9DCC"/>
<path fill-rule="evenodd" clip-rule="evenodd" d="M150.117 173.463C149.566 172.911 149.566 171.992 150.117 171.44C150.668 170.889 151.586 170.889 152.137 171.44L157.83 177.048L163.43 171.349C163.981 170.797 164.899 170.797 165.45 171.349C166.001 171.9 166.001 172.819 165.45 173.371L159.85 179.07L165.542 184.678C166.093 185.229 166.093 186.148 165.542 186.7C164.991 187.252 164.073 187.252 163.522 186.7L157.83 181.093L152.229 186.792C151.678 187.344 150.76 187.344 150.209 186.792C149.658 186.24 149.658 185.321 150.209 184.77L155.81 179.07L150.117 173.463Z" fill="#DE9396"/>
<path fill-rule="evenodd" clip-rule="evenodd" d="M150.944 145.15C150.393 144.598 150.393 143.679 150.944 143.128C151.494 142.576 152.413 142.576 152.963 143.128L155.902 145.977L162.696 138.164C163.247 137.612 164.073 137.52 164.716 138.072C165.267 138.623 165.358 139.451 164.808 140.094L157.003 149.011C156.452 149.562 155.534 149.562 154.983 149.011L150.944 145.15Z" fill="#EDBD54"/>
<path fill-rule="evenodd" clip-rule="evenodd" d="M116.972 120.054H112.473C111.371 120.054 110.545 119.135 110.545 118.124V113.62C110.545 112.516 111.463 111.689 112.473 111.689H116.972C118.074 111.689 118.9 112.608 118.9 113.62V118.124C118.992 119.135 118.074 120.054 116.972 120.054Z" fill="#0F5DAB"/>
<path fill-rule="evenodd" clip-rule="evenodd" d="M101.455 120.054H96.9564C95.8547 120.054 95.0283 119.135 95.0283 118.124V113.62C95.0283 112.516 95.9465 111.689 96.9564 111.689H101.455C102.557 111.689 103.383 112.608 103.383 113.62V118.124C103.383 119.135 102.557 120.054 101.455 120.054Z" fill="#0F5DAB"/>
<path fill-rule="evenodd" clip-rule="evenodd" d="M85.9388 120.054H81.4398C80.3381 120.054 79.5117 119.135 79.5117 118.124V113.62C79.5117 112.516 80.4299 111.689 81.4398 111.689H85.9388C87.0405 111.689 87.8669 112.608 87.8669 113.62V118.124C87.8669 119.135 87.0405 120.054 85.9388 120.054Z" fill="#0F5DAB"/>
<path fill-rule="evenodd" clip-rule="evenodd" d="M70.422 120.054H65.9231C64.8213 120.054 63.995 119.135 63.995 118.124V113.62C63.995 112.516 64.9131 111.689 65.9231 111.689H70.422C71.5238 111.689 72.3502 112.608 72.3502 113.62V118.124C72.3502 119.135 71.432 120.054 70.422 120.054Z" fill="#0F5DAB"/>
<path fill-rule="evenodd" clip-rule="evenodd" d="M54.8135 120.054H50.3146C49.2128 120.054 48.3865 119.135 48.3865 118.124V113.62C48.3865 112.516 49.3046 111.689 50.3146 111.689H54.8135C55.9153 111.689 56.7416 112.608 56.7416 113.62V118.124C56.8334 119.135 55.9153 120.054 54.8135 120.054Z" fill="#0F5DAB"/>
<path fill-rule="evenodd" clip-rule="evenodd" d="M39.2968 120.054H34.7979C33.6961 120.054 32.8698 119.135 32.8698 118.124V113.62C32.8698 112.516 33.7879 111.689 34.7979 111.689H39.2968C40.3986 111.689 41.2249 112.608 41.2249 113.62V118.124C41.2249 119.135 40.3986 120.054 39.2968 120.054Z" fill="#0F5DAB"/>
<path fill-rule="evenodd" clip-rule="evenodd" d="M85.3878 103.048H80.8889C79.7871 103.048 78.9608 102.129 78.9608 101.118V96.6134C78.9608 95.5103 79.8789 94.6829 80.8889 94.6829H85.3878C86.4896 94.6829 87.3159 95.6022 87.3159 96.6134V101.118C87.3159 102.221 86.3978 103.048 85.3878 103.048Z" fill="#0F5DAB"/>
<path fill-rule="evenodd" clip-rule="evenodd" d="M69.7793 103.048H65.2803C64.1786 103.048 63.3522 102.129 63.3522 101.118V96.6134C63.3522 95.5103 64.2704 94.6829 65.2803 94.6829H69.7793C70.881 94.6829 71.7074 95.6022 71.7074 96.6134V101.118C71.7992 102.221 70.881 103.048 69.7793 103.048Z" fill="#0F5DAB"/>
<path fill-rule="evenodd" clip-rule="evenodd" d="M54.2627 103.048H49.7637C48.662 103.048 47.8356 102.129 47.8356 101.118V96.6134C47.8356 95.5103 48.7538 94.6829 49.7637 94.6829H54.2627C55.3644 94.6829 56.1908 95.6022 56.1908 96.6134V101.118C56.2826 102.221 55.3644 103.048 54.2627 103.048Z" fill="#0F5DAB"/>
<path fill-rule="evenodd" clip-rule="evenodd" d="M70.422 138.255H65.9231C64.8213 138.255 63.995 137.336 63.995 136.325V131.821C63.995 130.718 64.9131 129.89 65.9231 129.89H70.422C71.5238 129.89 72.3502 130.81 72.3502 131.821V136.325C72.3502 137.428 71.432 138.255 70.422 138.255Z" fill="#0F5DAB"/>
<path fill-rule="evenodd" clip-rule="evenodd" d="M54.8135 138.255H50.3146C49.2128 138.255 48.3865 137.336 48.3865 136.325V131.821C48.3865 130.718 49.3046 129.89 50.3146 129.89H54.8135C55.9153 129.89 56.7416 130.81 56.7416 131.821V136.325C56.8334 137.428 55.9153 138.255 54.8135 138.255Z" fill="#0F5DAB"/>
<path fill-rule="evenodd" clip-rule="evenodd" d="M391.59 86.8693H387.091C385.99 86.8693 385.163 85.95 385.163 84.9389V80.4345C385.163 79.3314 386.081 78.5041 387.091 78.5041H391.59C392.692 78.5041 393.518 79.4234 393.518 80.4345V84.9389C393.518 85.95 392.692 86.8693 391.59 86.8693Z" fill="#0857A5"/>
<path fill-rule="evenodd" clip-rule="evenodd" d="M376.074 86.8693H371.575C370.473 86.8693 369.647 85.95 369.647 84.9389V80.4345C369.647 79.3314 370.565 78.5041 371.575 78.5041H376.074C377.175 78.5041 378.002 79.4234 378.002 80.4345V84.9389C378.002 85.95 377.084 86.8693 376.074 86.8693Z" fill="#0857A5"/>
<path fill-rule="evenodd" clip-rule="evenodd" d="M360.465 86.8693H355.966C354.864 86.8693 354.038 85.95 354.038 84.9389V80.4345C354.038 79.3314 354.956 78.5041 355.966 78.5041H360.465C361.567 78.5041 362.393 79.4234 362.393 80.4345V84.9389C362.485 85.95 361.567 86.8693 360.465 86.8693Z" fill="#0857A5"/>
<path fill-rule="evenodd" clip-rule="evenodd" d="M344.948 86.8693H340.45C339.348 86.8693 338.521 85.95 338.521 84.9389V80.4345C338.521 79.3314 339.44 78.5041 340.45 78.5041H344.948C346.05 78.5041 346.877 79.4234 346.877 80.4345V84.9389C346.877 85.95 346.05 86.8693 344.948 86.8693Z" fill="#0857A5"/>
<path fill-rule="evenodd" clip-rule="evenodd" d="M329.432 86.8693H324.933C323.831 86.8693 323.005 85.95 323.005 84.9389V80.4345C323.005 79.3314 323.923 78.5041 324.933 78.5041H329.432C330.533 78.5041 331.36 79.4234 331.36 80.4345V84.9389C331.36 85.95 330.533 86.8693 329.432 86.8693Z" fill="#0857A5"/>
<path fill-rule="evenodd" clip-rule="evenodd" d="M375.431 69.8631H370.932C369.83 69.8631 369.004 68.9439 369.004 67.9327V63.4284C369.004 62.3253 369.922 61.4979 370.932 61.4979H375.431C376.533 61.4979 377.359 62.4172 377.359 63.4284V67.9327C377.451 69.0358 376.533 69.8631 375.431 69.8631Z" fill="#0857A5"/>
<path fill-rule="evenodd" clip-rule="evenodd" d="M359.914 69.8631H355.415C354.314 69.8631 353.487 68.9439 353.487 67.9327V63.4284C353.487 62.3253 354.405 61.4979 355.415 61.4979H359.914C361.016 61.4979 361.842 62.4172 361.842 63.4284V67.9327C361.934 69.0358 361.016 69.8631 359.914 69.8631Z" fill="#0857A5"/>
<path fill-rule="evenodd" clip-rule="evenodd" d="M344.398 69.8631H339.899C338.797 69.8631 337.971 68.9439 337.971 67.9327V63.4284C337.971 62.3253 338.889 61.4979 339.899 61.4979H344.398C345.499 61.4979 346.326 62.4172 346.326 63.4284V67.9327C346.326 69.0358 345.499 69.8631 344.398 69.8631Z" fill="#0857A5"/>
<path fill-rule="evenodd" clip-rule="evenodd" d="M360.465 105.07H355.966C354.864 105.07 354.038 104.151 354.038 103.14V98.6357C354.038 97.5326 354.956 96.7053 355.966 96.7053H360.465C361.567 96.7053 362.393 97.6245 362.393 98.6357V103.14C362.485 104.151 361.567 105.07 360.465 105.07Z" fill="#0857A5"/>
<path fill-rule="evenodd" clip-rule="evenodd" d="M344.948 105.07H340.45C339.348 105.07 338.521 104.151 338.521 103.14V98.6357C338.521 97.5326 339.44 96.7053 340.45 96.7053H344.948C346.05 96.7053 346.877 97.6245 346.877 98.6357V103.14C346.877 104.151 346.05 105.07 344.948 105.07Z" fill="#0857A5"/>
<path fill-rule="evenodd" clip-rule="evenodd" d="M80.4299 38.1489C80.4299 37.5055 80.9808 36.9539 81.6235 36.9539C82.2662 36.9539 82.8171 37.5055 82.8171 38.1489V43.6645C82.8171 44.3079 82.2662 44.8595 81.6235 44.8595C80.9808 44.8595 80.4299 44.3079 80.4299 43.6645V38.1489ZM72.1665 42.6533C71.7075 42.1937 71.7075 41.3663 72.1665 40.9067C72.6256 40.4471 73.452 40.4471 73.911 40.9067L77.7672 44.7676C78.2263 45.2272 78.2263 46.0545 77.7672 46.5141C77.3082 46.9738 76.4818 46.9738 76.0228 46.5141L72.1665 42.6533ZM69.4121 51.6619C68.7694 51.6619 68.2185 51.1104 68.2185 50.4669C68.2185 49.8234 68.7694 49.2719 69.4121 49.2719H74.921C75.5637 49.2719 76.1146 49.8234 76.1146 50.4669C76.1146 51.1104 75.5637 51.6619 74.921 51.6619H69.4121ZM73.8192 59.9352C73.3601 60.3948 72.5338 60.3948 72.0747 59.9352C71.6157 59.4756 71.6157 58.6483 72.0747 58.1886L75.931 54.3278C76.39 53.8682 77.2164 53.8682 77.6754 54.3278C78.1345 54.7874 78.1345 55.6147 77.6754 56.0744L73.8192 59.9352ZM82.9089 62.693C82.9089 63.3364 82.358 63.888 81.7153 63.888C81.0726 63.888 80.5217 63.3364 80.5217 62.693V57.1775C80.5217 56.534 81.0726 55.9824 81.7153 55.9824C82.358 55.9824 82.9089 56.534 82.9089 57.1775V62.693ZM91.1722 58.2806C91.6313 58.7402 91.6313 59.5675 91.1722 60.0271C90.7132 60.4868 89.8868 60.4868 89.4277 60.0271L85.5715 56.0744C85.1124 55.6147 85.1124 54.7874 85.5715 54.3278C86.0306 53.8682 86.8569 53.8682 87.316 54.3278L91.1722 58.2806ZM93.9267 49.18C94.5694 49.18 95.1203 49.7315 95.1203 50.375C95.1203 51.0185 94.5694 51.57 93.9267 51.57H88.4178C87.7751 51.57 87.2242 51.0185 87.2242 50.375C87.2242 49.7315 87.7751 49.18 88.4178 49.18H93.9267ZM89.4277 40.9067C89.8868 40.4471 90.7132 40.4471 91.1722 40.9067C91.6313 41.3663 91.6313 42.1937 91.1722 42.6533L87.316 46.5141C86.8569 46.9738 86.0306 46.9738 85.5715 46.5141C85.1124 46.0545 85.1124 45.2272 85.5715 44.7676L89.4277 40.9067Z" fill="white"/>
<path fill-rule="evenodd" clip-rule="evenodd" d="M124.685 293.977C124.685 293.333 125.235 292.782 125.878 292.782C126.521 292.782 127.072 293.333 127.072 293.977V299.492C127.072 300.136 126.521 300.687 125.878 300.687C125.235 300.687 124.685 300.136 124.685 299.492V293.977ZM116.329 298.481C115.87 298.021 115.87 297.194 116.329 296.734C116.789 296.275 117.615 296.275 118.074 296.734L121.93 300.595C122.389 301.055 122.389 301.882 121.93 302.342C121.471 302.802 120.645 302.802 120.186 302.342L116.329 298.481ZM113.575 307.49C112.932 307.49 112.381 306.938 112.381 306.295C112.381 305.651 112.932 305.1 113.575 305.1H119.084C119.727 305.1 120.277 305.651 120.277 306.295C120.277 306.938 119.727 307.49 119.084 307.49H113.575ZM118.074 315.763C117.615 316.223 116.789 316.223 116.329 315.763C115.87 315.303 115.87 314.476 116.329 314.016L120.186 310.156C120.645 309.696 121.471 309.696 121.93 310.156C122.389 310.615 122.389 311.443 121.93 311.902L118.074 315.763ZM127.072 318.521C127.072 319.164 126.521 319.716 125.878 319.716C125.235 319.716 124.685 319.164 124.685 318.521V313.005C124.685 312.362 125.235 311.81 125.878 311.81C126.521 311.81 127.072 312.362 127.072 313.005V318.521ZM135.427 314.108C135.886 314.568 135.886 315.395 135.427 315.855C134.968 316.315 134.142 316.315 133.682 315.855L129.826 311.994C129.367 311.534 129.367 310.707 129.826 310.247C130.285 309.788 131.112 309.788 131.571 310.247L135.427 314.108ZM138.09 305.008C138.732 305.008 139.283 305.559 139.283 306.203C139.283 306.846 138.732 307.398 138.09 307.398H132.581C131.938 307.398 131.387 306.846 131.387 306.203C131.387 305.559 131.938 305.008 132.581 305.008H138.09ZM133.682 296.734C134.142 296.275 134.968 296.275 135.427 296.734C135.886 297.194 135.886 298.021 135.427 298.481L131.571 302.342C131.112 302.802 130.285 302.802 129.826 302.342C129.367 301.882 129.367 301.055 129.826 300.595L133.682 296.734Z" fill="white"/>
<path fill-rule="evenodd" clip-rule="evenodd" d="M503.145 137.704C503.145 137.06 503.696 136.509 504.339 136.509C504.982 136.509 505.532 137.06 505.532 137.704V143.219C505.532 143.863 504.982 144.414 504.339 144.414C503.696 144.414 503.145 143.863 503.145 143.219V137.704ZM494.79 142.208C494.331 141.749 494.331 140.921 494.79 140.462C495.249 140.002 496.075 140.002 496.535 140.462L500.391 144.323C500.85 144.782 500.85 145.609 500.391 146.069C499.932 146.529 499.105 146.529 498.646 146.069L494.79 142.208ZM492.036 151.217C491.393 151.217 490.842 150.665 490.842 150.022C490.842 149.378 491.393 148.827 492.036 148.827H497.545C498.187 148.827 498.738 149.378 498.738 150.022C498.738 150.665 498.187 151.217 497.545 151.217H492.036ZM496.535 159.49C496.075 159.95 495.249 159.95 494.79 159.49C494.331 159.031 494.331 158.203 494.79 157.744L498.646 153.883C499.105 153.423 499.932 153.423 500.391 153.883C500.85 154.342 500.85 155.17 500.391 155.629L496.535 159.49ZM505.532 162.248C505.532 162.891 504.982 163.443 504.339 163.443C503.696 163.443 503.145 162.891 503.145 162.248V156.732C503.145 156.089 503.696 155.537 504.339 155.537C504.982 155.537 505.532 156.089 505.532 156.732V162.248ZM513.888 157.836C514.347 158.295 514.347 159.122 513.888 159.582C513.429 160.042 512.602 160.042 512.143 159.582L508.287 155.721C507.828 155.262 507.828 154.434 508.287 153.975C508.746 153.515 509.572 153.515 510.031 153.975L513.888 157.836ZM516.55 148.827C517.193 148.827 517.744 149.378 517.744 150.022C517.744 150.665 517.193 151.217 516.55 151.217H511.041C510.399 151.217 509.848 150.665 509.848 150.022C509.848 149.378 510.399 148.827 511.041 148.827H516.55ZM512.143 140.462C512.602 140.002 513.429 140.002 513.888 140.462C514.347 140.921 514.347 141.749 513.888 142.208L510.031 146.069C509.572 146.529 508.746 146.529 508.287 146.069C507.828 145.609 507.828 144.782 508.287 144.323L512.143 140.462Z" fill="white"/>
<path fill-rule="evenodd" clip-rule="evenodd" d="M32.5025 230.916V232.938H34.5224C35.3487 232.938 35.9914 233.582 35.9914 234.409C35.9914 235.237 35.3487 235.88 34.5224 235.88H32.5025V237.902C32.5025 238.73 31.8598 239.373 31.0334 239.373C30.2071 239.373 29.5644 238.73 29.5644 237.902V235.88H27.5445C26.7181 235.88 26.0754 235.237 26.0754 234.409C26.0754 233.582 26.7181 232.938 27.5445 232.938H29.5644V230.916C29.5644 230.089 30.2071 229.445 31.0334 229.445C31.8598 229.353 32.5025 230.089 32.5025 230.916Z" fill="white"/>
<path fill-rule="evenodd" clip-rule="evenodd" d="M198.228 158.939V160.961H200.248C201.075 160.961 201.717 161.604 201.717 162.432C201.717 163.259 201.075 163.903 200.248 163.903H198.228V165.925C198.228 166.752 197.586 167.396 196.759 167.396C195.933 167.396 195.29 166.752 195.29 165.925V163.903H193.27C192.444 163.903 191.801 163.259 191.801 162.432C191.801 161.604 192.444 160.961 193.27 160.961H195.29V158.939C195.29 158.111 195.933 157.468 196.759 157.468C197.586 157.468 198.228 158.111 198.228 158.939Z" fill="white"/>
<path fill-rule="evenodd" clip-rule="evenodd" d="M221.549 21.7863V23.9925H223.753C224.671 23.9925 225.405 24.7279 225.405 25.6471C225.405 26.5664 224.671 27.3018 223.753 27.3018H221.549V29.508C221.549 30.4272 220.815 31.1626 219.897 31.1626C218.978 31.1626 218.244 30.4272 218.244 29.508V27.3018H216.04C215.122 27.3018 214.388 26.5664 214.388 25.6471C214.388 24.7279 215.122 23.9925 216.04 23.9925H218.244V21.7863C218.244 20.867 218.978 20.1316 219.897 20.1316C220.815 20.1316 221.549 20.867 221.549 21.7863Z" fill="white"/>
<path fill-rule="evenodd" clip-rule="evenodd" d="M510.215 229.261V231.468H512.419C513.337 231.468 514.071 232.203 514.071 233.122C514.071 234.042 513.337 234.777 512.419 234.777H510.215V236.983C510.215 237.902 509.481 238.638 508.562 238.638C507.644 238.638 506.91 237.902 506.91 236.983V234.777H504.706C503.788 234.777 503.053 234.042 503.053 233.122C503.053 232.203 503.788 231.468 504.706 231.468H506.91V229.261C506.91 228.342 507.644 227.607 508.562 227.607C509.481 227.515 510.215 228.342 510.215 229.261Z" fill="white"/>
<path fill-rule="evenodd" clip-rule="evenodd" d="M450.811 301.147V303.353H453.014C453.933 303.353 454.667 304.088 454.667 305.008C454.667 305.927 453.933 306.662 453.014 306.662H450.811V308.869C450.811 309.788 450.076 310.523 449.158 310.523C448.24 310.523 447.506 309.788 447.506 308.869V306.662H445.302C444.384 306.662 443.649 305.927 443.649 305.008C443.649 304.088 444.384 303.353 445.302 303.353H447.506V301.147C447.506 300.228 448.24 299.492 449.158 299.492C450.076 299.492 450.811 300.228 450.811 301.147Z" fill="white"/>
</svg>
